<svg xmlns="http://www.w3.org/2000/svg" xmlns:xlink="http://www.w3.org/1999/xlink" contentStyleType="text/css" data-diagram-type="CLASS" height="4637.5px" preserveAspectRatio="none" style="width:3171px;height:4637px;background:#FFFFFF;" version="1.1" viewBox="0 0 3171 4637" width="3171.875px" zoomAndPan="magnify"><defs/><g><!--class tenants--><g class="entity" data-entity="tenants" data-source-line="4" data-uid="ent0002" id="entity_tenants"><rect fill="#F5F5F5" height="279.3701" rx="6.25" ry="6.25" style="stroke:#555555;stroke-width:1.5625;" width="416.0034" x="18.75" y="1779.6875"/><rect fill="#E3E3E3" height="97.29" rx="6.25" ry="6.25" style="stroke:#E3E3E3;stroke-width:1.5625;" width="416.0034" x="18.75" y="1779.6875"/><rect fill="#E3E3E3" height="6.25" style="stroke:#E3E3E3;stroke-width:1.5625;" width="416.0034" x="18.75" y="1870.7275"/><rect fill="none" height="279.3701" rx="6.25" ry="6.25" style="stroke:#555555;stroke-width:1.5625;" width="416.0034" x="18.75" y="1779.6875"/><text fill="#111111" font-family="Arial" font-size="40.625" lengthAdjust="spacing" textLength="154.4067" x="149.5483" y="1842.3965">tenants</text><line style="stroke:#555555;stroke-width:1.5625;" x1="21.875" x2="431.6284" y1="1876.9775" y2="1876.9775"/><ellipse cx="53.125" cy="1927.1851" fill="#000000" rx="9.375" ry="9.375" style="stroke:#000000;stroke-width:3.125;"/><text fill="#000000" font-family="Arial" font-size="40.625" lengthAdjust="spacing" textLength="278.92" x="87.5" y="1936.5616">id : uuid &#171;PK&#187;</text><line style="stroke:#555555;stroke-width:1.5625;" x1="21.875" x2="431.6284" y1="1968.0176" y2="1968.0176"/><text fill="#000000" font-family="Arial" font-size="40.625" lengthAdjust="spacing" textLength="359.7534" x="46.875" y="2027.6016">(see sub-figure a)</text></g><!--class users--><g class="entity" data-entity="users" data-source-line="9" data-uid="ent0003" id="entity_users"><rect fill="#F5F5F5" height="279.3701" rx="6.25" ry="6.25" style="stroke:#555555;stroke-width:1.5625;" width="416.0034" x="18.75" y="3373.4375"/><rect fill="#E3E3E3" height="97.29" rx="6.25" ry="6.25" style="stroke:#E3E3E3;stroke-width:1.5625;" width="416.0034" x="18.75" y="3373.4375"/><rect fill="#E3E3E3" height="6.25" style="stroke:#E3E3E3;stroke-width:1.5625;" width="416.0034" x="18.75" y="3464.4775"/><rect fill="none" height="279.3701" rx="6.25" ry="6.25" style="stroke:#555555;stroke-width:1.5625;" width="416.0034" x="18.75" y="3373.4375"/><text fill="#111111" font-family="Arial" font-size="40.625" lengthAdjust="spacing" textLength="109.7748" x="171.8643" y="3436.1465">users</text><line style="stroke:#555555;stroke-width:1.5625;" x1="21.875" x2="431.6284" y1="3470.7275" y2="3470.7275"/><ellipse cx="53.125" cy="3520.9351" fill="#000000" rx="9.375" ry="9.375" style="stroke:#000000;stroke-width:3.125;"/><text fill="#000000" font-family="Arial" font-size="40.625" lengthAdjust="spacing" textLength="278.92" x="87.5" y="3530.3116">id : uuid &#171;PK&#187;</text><line style="stroke:#555555;stroke-width:1.5625;" x1="21.875" x2="431.6284" y1="3561.7676" y2="3561.7676"/><text fill="#000000" font-family="Arial" font-size="40.625" lengthAdjust="spacing" textLength="359.7534" x="46.875" y="3621.3516">(see sub-figure a)</text></g><!--class flows--><g class="entity" data-entity="flows" data-source-line="14" data-uid="ent0004" id="entity_flows"><rect fill="#F5F5F5" height="656.8604" rx="6.25" ry="6.25" style="stroke:#555555;stroke-width:1.5625;" width="949.7421" x="700" y="637.5"/><rect fill="#E3E3E3" height="97.29" rx="6.25" ry="6.25" style="stroke:#E3E3E3;stroke-width:1.5625;" width="949.7421" x="700" y="637.5"/><rect fill="#E3E3E3" height="6.25" style="stroke:#E3E3E3;stroke-width:1.5625;" width="949.7421" x="700" y="728.54"/><rect fill="none" height="656.8604" rx="6.25" ry="6.25" style="stroke:#555555;stroke-width:1.5625;" width="949.7421" x="700" y="637.5"/><text fill="#111111" font-family="Arial" font-size="40.625" lengthAdjust="spacing" textLength="217.4667" x="1066.1377" y="700.209">auth_flows</text><line style="stroke:#555555;stroke-width:1.5625;" x1="703.125" x2="1646.6171" y1="734.79" y2="734.79"/><ellipse cx="734.375" cy="784.9976" fill="#000000" rx="9.375" ry="9.375" style="stroke:#000000;stroke-width:3.125;"/><text fill="#000000" font-family="Arial" font-size="40.625" lengthAdjust="spacing" textLength="278.92" x="768.75" y="794.3741">id : uuid &#171;PK&#187;</text><line style="stroke:#555555;stroke-width:3.125;" x1="703.125" x2="1646.6171" y1="825.8301" y2="825.8301"/><ellipse cx="734.375" cy="876.0376" fill="#000000" rx="9.375" ry="9.375" style="stroke:#000000;stroke-width:3.125;"/><text fill="#000000" font-family="Arial" font-size="40.625" lengthAdjust="spacing" textLength="431.3431" x="768.75" y="885.4141">tenant_id : uuid &#171;FK&#187;</text><ellipse cx="734.375" cy="942.0776" fill="#000000" rx="9.375" ry="9.375" style="stroke:#000000;stroke-width:3.125;"/><text fill="#000000" font-family="Arial" font-size="40.625" lengthAdjust="spacing" textLength="310.0433" x="768.75" y="951.4542">name : varchar</text><text fill="#000000" font-family="Arial" font-size="40.625" lengthAdjust="spacing" textLength="621.9116" x="768.75" y="1017.4942">flow_type : AUTHENTICATION |</text><text fill="#000000" font-family="Arial" font-size="40.625" lengthAdjust="spacing" textLength="601.3016" x="794.577" y="1064.7842">VERIFICATION | ENROLLMENT</text><text fill="#000000" font-family="Arial" font-size="40.625" lengthAdjust="spacing" textLength="635.7574" x="768.75" y="1130.8243">operation_type : APP_LOGIN, ...</text><text fill="#000000" font-family="Arial" font-size="40.625" lengthAdjust="spacing" textLength="852.8671" x="768.75" y="1196.8643">industry_template : varchar (5 templates)</text><text fill="#000000" font-family="Arial" font-size="40.625" lengthAdjust="spacing" textLength="397.641" x="768.75" y="1262.9044">is_default : boolean</text></g><!--class methods--><g class="entity" data-entity="methods" data-source-line="25" data-uid="ent0005" id="entity_methods"><rect fill="#F5F5F5" height="477.4902" rx="6.25" ry="6.25" style="stroke:#555555;stroke-width:1.5625;" width="934.3292" x="707.8125" y="1351.5625"/><rect fill="#E3E3E3" height="97.29" rx="6.25" ry="6.25" style="stroke:#E3E3E3;stroke-width:1.5625;" width="934.3292" x="707.8125" y="1351.5625"/><rect fill="#E3E3E3" height="6.25" style="stroke:#E3E3E3;stroke-width:1.5625;" width="934.3292" x="707.8125" y="1442.6025"/><rect fill="none" height="477.4902" rx="6.25" ry="6.25" style="stroke:#555555;stroke-width:1.5625;" width="934.3292" x="707.8125" y="1351.5625"/><text fill="#111111" font-family="Arial" font-size="40.625" lengthAdjust="spacing" textLength="290.683" x="1029.6356" y="1414.2715">auth_methods</text><line style="stroke:#555555;stroke-width:1.5625;" x1="710.9375" x2="1639.0167" y1="1448.8525" y2="1448.8525"/><ellipse cx="742.1875" cy="1499.0601" fill="#000000" rx="9.375" ry="9.375" style="stroke:#000000;stroke-width:3.125;"/><text fill="#000000" font-family="Arial" font-size="40.625" lengthAdjust="spacing" textLength="278.92" x="776.5625" y="1508.4366">id : uuid &#171;PK&#187;</text><line style="stroke:#555555;stroke-width:3.125;" x1="710.9375" x2="1639.0167" y1="1539.8926" y2="1539.8926"/><ellipse cx="742.1875" cy="1590.1001" fill="#000000" rx="9.375" ry="9.375" style="stroke:#000000;stroke-width:3.125;"/><text fill="#000000" font-family="Arial" font-size="40.625" lengthAdjust="spacing" textLength="769.812" x="776.5625" y="1599.4766">type : enum &#171;UQ&#187; (12 login methods)</text><text fill="#000000" font-family="Arial" font-size="40.625" lengthAdjust="spacing" textLength="837.4542" x="776.5625" y="1665.5167">category : BASIC | STANDARD | PREMIUM</text><text fill="#000000" font-family="Arial" font-size="40.625" lengthAdjust="spacing" textLength="610.7437" x="776.5625" y="1731.5567">requires_enrollment : boolean</text><text fill="#000000" font-family="Arial" font-size="40.625" lengthAdjust="spacing" textLength="378.1815" x="776.5625" y="1797.5967">is_active : boolean</text></g><!--class clients--><g class="entity" data-entity="clients" data-source-line="34" data-uid="ent0006" id="entity_clients"><rect fill="#F5F5F5" height="543.5303" rx="6.25" ry="6.25" style="stroke:#555555;stroke-width:1.5625;" width="860.6964" x="745.3125" y="37.5"/><rect fill="#E3E3E3" height="97.29" rx="6.25" ry="6.25" style="stroke:#E3E3E3;stroke-width:1.5625;" width="860.6964" x="745.3125" y="37.5"/><rect fill="#E3E3E3" height="6.25" style="stroke:#E3E3E3;stroke-width:1.5625;" width="860.6964" x="745.3125" y="128.54"/><rect fill="none" height="543.5303" rx="6.25" ry="6.25" style="stroke:#555555;stroke-width:1.5625;" width="860.6964" x="745.3125" y="37.5"/><text fill="#111111" font-family="Arial" font-size="40.625" lengthAdjust="spacing" textLength="296.0785" x="1027.6215" y="100.209">oauth2_clients</text><line style="stroke:#555555;stroke-width:1.5625;" x1="748.4375" x2="1602.8839" y1="134.79" y2="134.79"/><ellipse cx="779.6875" cy="184.9976" fill="#000000" rx="9.375" ry="9.375" style="stroke:#000000;stroke-width:3.125;"/><text fill="#000000" font-family="Arial" font-size="40.625" lengthAdjust="spacing" textLength="278.92" x="814.0625" y="194.3741">id : uuid &#171;PK&#187;</text><line style="stroke:#555555;stroke-width:3.125;" x1="748.4375" x2="1602.8839" y1="225.8301" y2="225.8301"/><ellipse cx="779.6875" cy="276.0376" fill="#000000" rx="9.375" ry="9.375" style="stroke:#000000;stroke-width:3.125;"/><text fill="#000000" font-family="Arial" font-size="40.625" lengthAdjust="spacing" textLength="488.1348" x="814.0625" y="285.4141">client_id : varchar &#171;UQ&#187;</text><text fill="#000000" font-family="Arial" font-size="40.625" lengthAdjust="spacing" textLength="636.1542" x="814.0625" y="351.4542">client_secret : varchar (BCrypt)</text><ellipse cx="779.6875" cy="408.1177" fill="#000000" rx="9.375" ry="9.375" style="stroke:#000000;stroke-width:3.125;"/><text fill="#000000" font-family="Arial" font-size="40.625" lengthAdjust="spacing" textLength="431.3431" x="814.0625" y="417.4942">tenant_id : uuid &#171;FK&#187;</text><text fill="#000000" font-family="Arial" font-size="40.625" lengthAdjust="spacing" textLength="584.1827" x="814.0625" y="483.5342">redirect_uris : text (allowlist)</text><text fill="#000000" font-family="Arial" font-size="40.625" lengthAdjust="spacing" textLength="763.8214" x="814.0625" y="549.5743">confidential : boolean (PKCE if public)</text></g><!--class enrollments--><g class="entity" data-entity="enrollments" data-source-line="44" data-uid="ent0007" id="entity_enrollments"><rect fill="#F5F5F5" height="609.5703" rx="6.25" ry="6.25" style="stroke:#555555;stroke-width:1.5625;" width="1006.2363" x="671.875" y="2007.8125"/><rect fill="#E3E3E3" height="97.29" rx="6.25" ry="6.25" style="stroke:#E3E3E3;stroke-width:1.5625;" width="1006.2363" x="671.875" y="2007.8125"/><rect fill="#E3E3E3" height="6.25" style="stroke:#E3E3E3;stroke-width:1.5625;" width="1006.2363" x="671.875" y="2098.8525"/><rect fill="none" height="609.5703" rx="6.25" ry="6.25" style="stroke:#555555;stroke-width:1.5625;" width="1006.2363" x="671.875" y="2007.8125"/><text fill="#111111" font-family="Arial" font-size="40.625" lengthAdjust="spacing" textLength="351.2039" x="999.3912" y="2070.5215">user_enrollments</text><line style="stroke:#555555;stroke-width:1.5625;" x1="675" x2="1674.9863" y1="2105.1025" y2="2105.1025"/><ellipse cx="706.25" cy="2155.3101" fill="#000000" rx="9.375" ry="9.375" style="stroke:#000000;stroke-width:3.125;"/><text fill="#000000" font-family="Arial" font-size="40.625" lengthAdjust="spacing" textLength="278.92" x="740.625" y="2164.6866">id : uuid &#171;PK&#187;</text><line style="stroke:#555555;stroke-width:3.125;" x1="675" x2="1674.9863" y1="2196.1426" y2="2196.1426"/><ellipse cx="706.25" cy="2246.3501" fill="#000000" rx="9.375" ry="9.375" style="stroke:#000000;stroke-width:3.125;"/><text fill="#000000" font-family="Arial" font-size="40.625" lengthAdjust="spacing" textLength="386.7111" x="740.625" y="2255.7266">user_id : uuid &#171;FK&#187;</text><ellipse cx="706.25" cy="2312.3901" fill="#000000" rx="9.375" ry="9.375" style="stroke:#000000;stroke-width:3.125;"/><text fill="#000000" font-family="Arial" font-size="40.625" lengthAdjust="spacing" textLength="431.3431" x="740.625" y="2321.7667">tenant_id : uuid &#171;FK&#187;</text><text fill="#000000" font-family="Arial" font-size="40.625" lengthAdjust="spacing" textLength="536.1588" x="740.625" y="2387.8067">auth_method_type : enum</text><text fill="#000000" font-family="Arial" font-size="40.625" lengthAdjust="spacing" textLength="909.3613" x="740.625" y="2453.8467">status : PENDING | ENROLLED | REVOKED, ...</text><text fill="#000000" font-family="Arial" font-size="40.625" lengthAdjust="spacing" textLength="571.5469" x="740.625" y="2519.8868">quality_score : numeric(5,4)</text><text fill="#000000" font-family="Arial" font-size="40.625" lengthAdjust="spacing" textLength="597.2549" x="740.625" y="2585.9268">liveness_score : numeric(5,4)</text></g><!--class audit--><g class="entity" data-entity="audit" data-source-line="55" data-uid="ent0008" id="entity_audit"><rect fill="#F5F5F5" height="675.6104" rx="6.25" ry="6.25" style="stroke:#555555;stroke-width:1.5625;" width="939.6652" x="704.6875" y="2675"/><rect fill="#E3E3E3" height="97.29" rx="6.25" ry="6.25" style="stroke:#E3E3E3;stroke-width:1.5625;" width="939.6652" x="704.6875" y="2675"/><rect fill="#E3E3E3" height="6.25" style="stroke:#E3E3E3;stroke-width:1.5625;" width="939.6652" x="704.6875" y="2766.04"/><rect fill="none" height="675.6104" rx="6.25" ry="6.25" style="stroke:#555555;stroke-width:1.5625;" width="939.6652" x="704.6875" y="2675"/><text fill="#111111" font-family="Arial" font-size="40.625" lengthAdjust="spacing" textLength="207.0526" x="1070.9938" y="2737.709">audit_logs</text><line style="stroke:#555555;stroke-width:1.5625;" x1="707.8125" x2="1641.2277" y1="2772.29" y2="2772.29"/><ellipse cx="739.0625" cy="2822.4976" fill="#000000" rx="9.375" ry="9.375" style="stroke:#000000;stroke-width:3.125;"/><text fill="#000000" font-family="Arial" font-size="40.625" lengthAdjust="spacing" textLength="278.92" x="773.4375" y="2831.8741">id : uuid &#171;PK&#187;</text><line style="stroke:#555555;stroke-width:3.125;" x1="707.8125" x2="1641.2277" y1="2863.3301" y2="2863.3301"/><ellipse cx="739.0625" cy="2913.5376" fill="#000000" rx="9.375" ry="9.375" style="stroke:#000000;stroke-width:3.125;"/><text fill="#000000" font-family="Arial" font-size="40.625" lengthAdjust="spacing" textLength="842.7902" x="773.4375" y="2922.9141">tenant_id : uuid (sentinel for anonymous)</text><text fill="#000000" font-family="Arial" font-size="40.625" lengthAdjust="spacing" textLength="610.2676" x="773.4375" y="2988.9542">user_id : uuid (actor, nullable)</text><text fill="#000000" font-family="Arial" font-size="40.625" lengthAdjust="spacing" textLength="319.8822" x="773.4375" y="3054.9942">action : varchar</text><text fill="#000000" font-family="Arial" font-size="40.625" lengthAdjust="spacing" textLength="483.3939" x="773.4375" y="3121.0342">resource_type : varchar</text><text fill="#000000" font-family="Arial" font-size="40.625" lengthAdjust="spacing" textLength="335.5927" x="773.4375" y="3187.0743">status_code : int</text><text fill="#000000" font-family="Arial" font-size="40.625" lengthAdjust="spacing" textLength="360.8444" x="773.4375" y="3253.1143">success : boolean</text><text fill="#000000" font-family="Arial" font-size="40.625" lengthAdjust="spacing" textLength="719.9234" x="773.4375" y="3319.1544">created_at : timestamptz (indexed)</text></g><!--class mfa--><g class="entity" data-entity="mfa" data-source-line="67" data-uid="ent0009" id="entity_mfa"><rect fill="#F5F5F5" height="609.5703" rx="6.25" ry="6.25" style="stroke:#555555;stroke-width:1.5625;" width="928.9536" x="710.9375" y="3407.8125"/><rect fill="#E3E3E3" height="97.29" rx="6.25" ry="6.25" style="stroke:#E3E3E3;stroke-width:1.5625;" width="928.9536" x="710.9375" y="3407.8125"/><rect fill="#E3E3E3" height="6.25" style="stroke:#E3E3E3;stroke-width:1.5625;" width="928.9536" x="710.9375" y="3498.8525"/><rect fill="none" height="609.5703" rx="6.25" ry="6.25" style="stroke:#555555;stroke-width:1.5625;" width="928.9536" x="710.9375" y="3407.8125"/><text fill="#111111" font-family="Arial" font-size="40.625" lengthAdjust="spacing" textLength="270.6284" x="1040.1001" y="3470.5215">mfa_sessions</text><line style="stroke:#555555;stroke-width:1.5625;" x1="714.0625" x2="1636.7661" y1="3505.1025" y2="3505.1025"/><ellipse cx="745.3125" cy="3555.3101" fill="#000000" rx="9.375" ry="9.375" style="stroke:#000000;stroke-width:3.125;"/><text fill="#000000" font-family="Arial" font-size="40.625" lengthAdjust="spacing" textLength="278.92" x="779.6875" y="3564.6866">id : uuid &#171;PK&#187;</text><line style="stroke:#555555;stroke-width:3.125;" x1="714.0625" x2="1636.7661" y1="3596.1426" y2="3596.1426"/><ellipse cx="745.3125" cy="3646.3501" fill="#000000" rx="9.375" ry="9.375" style="stroke:#000000;stroke-width:3.125;"/><text fill="#000000" font-family="Arial" font-size="40.625" lengthAdjust="spacing" textLength="604.9118" x="779.6875" y="3655.7266">session_token : varchar &#171;UQ&#187;</text><text fill="#000000" font-family="Arial" font-size="40.625" lengthAdjust="spacing" textLength="274.0799" x="779.6875" y="3721.7667">user_id : uuid</text><text fill="#000000" font-family="Arial" font-size="40.625" lengthAdjust="spacing" textLength="610.585" x="779.6875" y="3787.8067">current_step / total_steps : int</text><text fill="#000000" font-family="Arial" font-size="40.625" lengthAdjust="spacing" textLength="567.5797" x="779.6875" y="3853.8467">steps_data : jsonb (amr list)</text><text fill="#000000" font-family="Arial" font-size="40.625" lengthAdjust="spacing" textLength="832.0786" x="779.6875" y="3919.8868">consumed_at : timestamptz (anti-replay)</text><text fill="#000000" font-family="Arial" font-size="40.625" lengthAdjust="spacing" textLength="506.0074" x="779.6875" y="3985.9268">expires_at : timestamptz</text></g><!--class tokens--><g class="entity" data-entity="tokens" data-source-line="78" data-uid="ent0010" id="entity_tokens"><rect fill="#F5F5F5" height="543.5303" rx="6.25" ry="6.25" style="stroke:#555555;stroke-width:1.5625;" width="852.3254" x="748.4375" y="4075"/><rect fill="#E3E3E3" height="97.29" rx="6.25" ry="6.25" style="stroke:#E3E3E3;stroke-width:1.5625;" width="852.3254" x="748.4375" y="4075"/><rect fill="#E3E3E3" height="6.25" style="stroke:#E3E3E3;stroke-width:1.5625;" width="852.3254" x="748.4375" y="4166.04"/><rect fill="none" height="543.5303" rx="6.25" ry="6.25" style="stroke:#555555;stroke-width:1.5625;" width="852.3254" x="748.4375" y="4075"/><text fill="#111111" font-family="Arial" font-size="40.625" lengthAdjust="spacing" textLength="301.1368" x="1024.0318" y="4137.709">refresh_tokens</text><line style="stroke:#555555;stroke-width:1.5625;" x1="751.5625" x2="1597.6379" y1="4172.29" y2="4172.29"/><ellipse cx="782.8125" cy="4222.4976" fill="#000000" rx="9.375" ry="9.375" style="stroke:#000000;stroke-width:3.125;"/><text fill="#000000" font-family="Arial" font-size="40.625" lengthAdjust="spacing" textLength="278.92" x="817.1875" y="4231.8741">id : uuid &#171;PK&#187;</text><line style="stroke:#555555;stroke-width:3.125;" x1="751.5625" x2="1597.6379" y1="4263.3301" y2="4263.3301"/><ellipse cx="782.8125" cy="4313.5376" fill="#000000" rx="9.375" ry="9.375" style="stroke:#000000;stroke-width:3.125;"/><text fill="#000000" font-family="Arial" font-size="40.625" lengthAdjust="spacing" textLength="386.7111" x="817.1875" y="4322.9141">user_id : uuid &#171;FK&#187;</text><text fill="#000000" font-family="Arial" font-size="40.625" lengthAdjust="spacing" textLength="755.4504" x="817.1875" y="4388.9542">token_secret_hash : bytea (SHA-256)</text><text fill="#000000" font-family="Arial" font-size="40.625" lengthAdjust="spacing" textLength="653.9673" x="817.1875" y="4454.9942">family_id : uuid (rotation family)</text><text fill="#000000" font-family="Arial" font-size="40.625" lengthAdjust="spacing" textLength="419.5999" x="817.1875" y="4521.0342">is_revoked : boolean</text><text fill="#000000" font-family="Arial" font-size="40.625" lengthAdjust="spacing" textLength="534.671" x="817.1875" y="4587.0743">expiry_date : timestamptz</text></g><!--class steps--><g class="entity" data-entity="steps" data-source-line="88" data-uid="ent0011" id="entity_steps"><rect fill="#F5F5F5" height="609.5703" rx="6.25" ry="6.25" style="stroke:#555555;stroke-width:1.5625;" width="868.0954" x="2284.375" y="1014.0625"/><rect fill="#E3E3E3" height="97.29" rx="6.25" ry="6.25" style="stroke:#E3E3E3;stroke-width:1.5625;" width="868.0954" x="2284.375" y="1014.0625"/><rect fill="#E3E3E3" height="6.25" style="stroke:#E3E3E3;stroke-width:1.5625;" width="868.0954" x="2284.375" y="1105.1025"/><rect fill="none" height="609.5703" rx="6.25" ry="6.25" style="stroke:#555555;stroke-width:1.5625;" width="868.0954" x="2284.375" y="1014.0625"/><text fill="#111111" font-family="Arial" font-size="40.625" lengthAdjust="spacing" textLength="325.6546" x="2555.5954" y="1076.7715">auth_flow_steps</text><line style="stroke:#555555;stroke-width:1.5625;" x1="2287.5" x2="3149.3454" y1="1111.3525" y2="1111.3525"/><ellipse cx="2318.75" cy="1161.5601" fill="#000000" rx="9.375" ry="9.375" style="stroke:#000000;stroke-width:3.125;"/><text fill="#000000" font-family="Arial" font-size="40.625" lengthAdjust="spacing" textLength="278.92" x="2353.125" y="1170.9366">id : uuid &#171;PK&#187;</text><line style="stroke:#555555;stroke-width:3.125;" x1="2287.5" x2="3149.3454" y1="1202.3926" y2="1202.3926"/><ellipse cx="2318.75" cy="1252.6001" fill="#000000" rx="9.375" ry="9.375" style="stroke:#000000;stroke-width:3.125;"/><text fill="#000000" font-family="Arial" font-size="40.625" lengthAdjust="spacing" textLength="494.4031" x="2353.125" y="1261.9766">auth_flow_id : uuid &#171;FK&#187;</text><ellipse cx="2318.75" cy="1318.6401" fill="#000000" rx="9.375" ry="9.375" style="stroke:#000000;stroke-width:3.125;"/><text fill="#000000" font-family="Arial" font-size="40.625" lengthAdjust="spacing" textLength="771.2204" x="2353.125" y="1328.0167">auth_method_id : uuid &#171;FK&#187; (primary)</text><text fill="#000000" font-family="Arial" font-size="40.625" lengthAdjust="spacing" textLength="633.6151" x="2353.125" y="1394.0567">fallback_method_id : uuid &#171;FK&#187;</text><text fill="#000000" font-family="Arial" font-size="40.625" lengthAdjust="spacing" textLength="309.7061" x="2353.125" y="1460.0967">step_order : int</text><text fill="#000000" font-family="Arial" font-size="40.625" lengthAdjust="spacing" textLength="691.3193" x="2353.125" y="1526.1368">step_type : SEQUENTIAL | CHOICE</text><text fill="#000000" font-family="Arial" font-size="40.625" lengthAdjust="spacing" textLength="385.5011" x="2353.125" y="1592.1768">max_attempts : int</text></g><!--class tmethods--><g class="entity" data-entity="tmethods" data-source-line="99" data-uid="ent0012" id="entity_tmethods"><rect fill="#F5F5F5" height="477.4902" rx="6.25" ry="6.25" style="stroke:#555555;stroke-width:1.5625;" width="664.4943" x="2385.9375" y="1679.6875"/><rect fill="#E3E3E3" height="97.29" rx="6.25" ry="6.25" style="stroke:#E3E3E3;stroke-width:1.5625;" width="664.4943" x="2385.9375" y="1679.6875"/><rect fill="#E3E3E3" height="6.25" style="stroke:#E3E3E3;stroke-width:1.5625;" width="664.4943" x="2385.9375" y="1770.7275"/><rect fill="none" height="477.4902" rx="6.25" ry="6.25" style="stroke:#555555;stroke-width:1.5625;" width="664.4943" x="2385.9375" y="1679.6875"/><text fill="#111111" font-family="Arial" font-size="40.625" lengthAdjust="spacing" textLength="444.2368" x="2496.0663" y="1742.3965">tenant_auth_methods</text><line style="stroke:#555555;stroke-width:1.5625;" x1="2389.0625" x2="3047.3068" y1="1776.9775" y2="1776.9775"/><ellipse cx="2420.3125" cy="1827.1851" fill="#000000" rx="9.375" ry="9.375" style="stroke:#000000;stroke-width:3.125;"/><text fill="#000000" font-family="Arial" font-size="40.625" lengthAdjust="spacing" textLength="278.92" x="2454.6875" y="1836.5616">id : uuid &#171;PK&#187;</text><line style="stroke:#555555;stroke-width:3.125;" x1="2389.0625" x2="3047.3068" y1="1868.0176" y2="1868.0176"/><ellipse cx="2420.3125" cy="1918.2251" fill="#000000" rx="9.375" ry="9.375" style="stroke:#000000;stroke-width:3.125;"/><text fill="#000000" font-family="Arial" font-size="40.625" lengthAdjust="spacing" textLength="431.3431" x="2454.6875" y="1927.6016">tenant_id : uuid &#171;FK&#187;</text><ellipse cx="2420.3125" cy="1984.2651" fill="#000000" rx="9.375" ry="9.375" style="stroke:#000000;stroke-width:3.125;"/><text fill="#000000" font-family="Arial" font-size="40.625" lengthAdjust="spacing" textLength="567.6193" x="2454.6875" y="1993.6417">auth_method_id : uuid &#171;FK&#187;</text><text fill="#000000" font-family="Arial" font-size="40.625" lengthAdjust="spacing" textLength="418.1915" x="2454.6875" y="2059.6817">is_enabled : boolean</text><text fill="#000000" font-family="Arial" font-size="40.625" lengthAdjust="spacing" textLength="272.6715" x="2454.6875" y="2125.7217">config : jsonb</text></g><g class="link" data-entity-1="tenants" data-entity-2="flows" data-uid="lnk13" id="link_tenants_flows"><line style="stroke:#555555;stroke-width:3.125;" x1="332.5244" x2="311.4923" y1="1774.9692" y2="1761.4544"/><line style="stroke:#555555;stroke-width:3.125;" x1="337.5925" x2="316.5603" y1="1767.0821" y2="1753.5673"/><line style="stroke:#555555;stroke-width:3.125;" x1="328.7657" x2="315.251" y1="1757.6957" y2="1778.7278"/><line style="stroke:#555555;stroke-width:3.125;" x1="682.7474" x2="688.4424" y1="1311.0094" y2="1280.2827"/><line style="stroke:#555555;stroke-width:3.125;" x1="682.7474" x2="713.8396" y1="1311.0094" y2="1307.8731"/><line style="stroke:#555555;stroke-width:3.125;" x1="682.7474" x2="701.141" y1="1311.0094" y2="1294.0779"/><ellipse cx="668.9522" cy="1323.7081" fill="none" rx="12.5" ry="12.5" style="stroke:#555555;stroke-width:3.125;"/><path d="M328.7657,1757.6957 C410.7277,1630.1439 529.2253,1461.9035 671.875,1321.875 C681.3829,1312.5418 649.7688,1341.3666 659.7554,1332.1738" fill="none" style="stroke:#555555;stroke-width:3.125;"/></g><g class="link" data-entity-1="tenants" data-entity-2="clients" data-uid="lnk14" id="link_tenants_clients"><line style="stroke:#555555;stroke-width:3.125;" x1="258.9115" x2="234.1317" y1="1768.6893" y2="1765.3786"/><line style="stroke:#555555;stroke-width:3.125;" x1="260.153" x2="235.3732" y1="1759.3968" y2="1756.0862"/><line style="stroke:#555555;stroke-width:3.125;" x1="248.177" x2="244.8663" y1="1754.644" y2="1779.4238"/><line style="stroke:#555555;stroke-width:3.125;" x1="725.8563" x2="732.3744" y1="550.862" y2="520.2993"/><line style="stroke:#555555;stroke-width:3.125;" x1="725.8563" x2="757.0215" y1="550.862" y2="548.5618"/><line style="stroke:#555555;stroke-width:3.125;" x1="725.8563" x2="744.698" y1="550.862" y2="534.4306"/><ellipse cx="711.725" cy="563.1855" fill="none" rx="12.5" ry="12.5" style="stroke:#555555;stroke-width:3.125;"/><path d="M248.177,1754.644 C282.5179,1497.6073 383.6645,967.2189 671.875,609.375 C693.4645,582.5693 675.7452,594.5628 702.3042,571.4012" fill="none" style="stroke:#555555;stroke-width:3.125;"/></g><g class="link" data-entity-1="tenants" data-entity-2="enrollments" data-uid="lnk15" id="link_tenants_enrollments"><line style="stroke:#555555;stroke-width:3.125;" x1="442.0037" x2="451.6436" y1="2021.0268" y2="1997.9601"/><line style="stroke:#555555;stroke-width:3.125;" x1="450.6538" x2="460.2936" y1="2024.6418" y2="2001.575"/><line style="stroke:#555555;stroke-width:3.125;" x1="458.357" x2="435.2903" y1="2014.3134" y2="2004.6736"/><line style="stroke:#555555;stroke-width:3.125;" x1="648.1178" x2="678.4144" y1="2093.6164" y2="2085.9562"/><line style="stroke:#555555;stroke-width:3.125;" x1="648.1178" x2="663.9546" y1="2093.6164" y2="2120.5563"/><line style="stroke:#555555;stroke-width:3.125;" x1="648.1178" x2="671.1845" y1="2093.6164" y2="2103.2562"/><ellipse cx="630.8177" cy="2086.3865" fill="none" rx="12.5" ry="12.5" style="stroke:#555555;stroke-width:3.125;"/><path d="M458.357,2014.3134 C528.7471,2043.7301 535.9118,2046.7243 619.2844,2081.5666" fill="none" style="stroke:#555555;stroke-width:3.125;"/></g><g class="link" data-entity-1="tenants" data-entity-2="audit" data-uid="lnk16" id="link_tenants_audit"><line style="stroke:#555555;stroke-width:3.125;" x1="287.8978" x2="310.3743" y1="2075.1003" y2="2064.1545"/><line style="stroke:#555555;stroke-width:3.125;" x1="292.0025" x2="314.479" y1="2083.5289" y2="2072.5832"/><line style="stroke:#555555;stroke-width:3.125;" x1="304.6089" x2="293.6632" y1="2080.8656" y2="2058.3892"/><line style="stroke:#555555;stroke-width:3.125;" x1="686.9196" x2="717.8699" y1="2663.3117" y2="2667.6289"/><line style="stroke:#555555;stroke-width:3.125;" x1="686.9196" x2="691.4411" y1="2663.3117" y2="2694.2328"/><line style="stroke:#555555;stroke-width:3.125;" x1="686.9196" x2="704.6555" y1="2663.3117" y2="2680.9309"/><ellipse cx="673.6176" cy="2650.0973" fill="none" rx="12.5" ry="12.5" style="stroke:#555555;stroke-width:3.125;"/><path d="M304.6089,2080.8656 C380.1677,2236.0215 505.8648,2466.0048 671.875,2646.875 C682.4189,2658.3628 653.4666,2630.079 664.7496,2641.2877" fill="none" style="stroke:#555555;stroke-width:3.125;"/></g><g class="link" data-entity-1="tenants" data-entity-2="tmethods" data-uid="lnk17" id="link_tenants_tmethods"><line style="stroke:#555555;stroke-width:3.125;" x1="447.7372" x2="447.7372" y1="1931.25" y2="1906.25"/><line style="stroke:#555555;stroke-width:3.125;" x1="457.1122" x2="457.1122" y1="1931.25" y2="1906.25"/><line style="stroke:#555555;stroke-width:3.125;" x1="460.2372" x2="435.2372" y1="1918.75" y2="1918.75"/><line style="stroke:#555555;stroke-width:3.125;" x1="2359.9661" x2="2384.9661" y1="1918.75" y2="1900"/><line style="stroke:#555555;stroke-width:3.125;" x1="2359.9661" x2="2384.9661" y1="1918.75" y2="1937.5"/><line style="stroke:#555555;stroke-width:3.125;" x1="2359.9661" x2="2384.9661" y1="1918.75" y2="1918.75"/><ellipse cx="2341.2161" cy="1918.75" fill="none" rx="12.5" ry="12.5" style="stroke:#555555;stroke-width:3.125;"/><path d="M460.2372,1918.75 C890.3598,1918.75 1807.2737,1918.75 2328.7161,1918.75" fill="none" style="stroke:#555555;stroke-width:3.125;"/></g><g class="link" data-entity-1="users" data-entity-2="enrollments" data-uid="lnk18" id="link_users_enrollments"><line style="stroke:#555555;stroke-width:3.125;" x1="291.812" x2="268.283" y1="3365.3178" y2="3356.8688"/><line style="stroke:#555555;stroke-width:3.125;" x1="294.9804" x2="271.4513" y1="3356.4944" y2="3348.0455"/><line style="stroke:#555555;stroke-width:3.125;" x1="284.272" x2="275.823" y1="3349.3288" y2="3372.8578"/><line style="stroke:#555555;stroke-width:3.125;" x1="681.3193" x2="685.5302" y1="2635.8813" y2="2604.9163"/><line style="stroke:#555555;stroke-width:3.125;" x1="681.3193" x2="712.2248" y1="2635.8813" y2="2631.2535"/><line style="stroke:#555555;stroke-width:3.125;" x1="681.3193" x2="698.8775" y1="2635.8813" y2="2618.0849"/><ellipse cx="668.1507" cy="2649.2286" fill="none" rx="12.5" ry="12.5" style="stroke:#555555;stroke-width:3.125;"/><path d="M284.272,3349.3288 C349.8922,3166.5854 475.9172,2867.2516 671.875,2646.875 C680.5489,2637.1202 650.062,2667.5626 659.3716,2658.1267" fill="none" style="stroke:#555555;stroke-width:3.125;"/></g><g class="link" data-entity-1="users" data-entity-2="audit" data-uid="lnk19" id="link_users_audit"><line style="stroke:#555555;stroke-width:3.125;" x1="452.1914" x2="440.4723" y1="3408.5728" y2="3386.4896"/><line style="stroke:#555555;stroke-width:3.125;" x1="460.4725" x2="448.7535" y1="3404.1781" y2="3382.095"/><line style="stroke:#555555;stroke-width:3.125;" x1="457.3734" x2="435.2903" y1="3391.6717" y2="3403.3907"/><line style="stroke:#555555;stroke-width:3.125;" x1="681.8493" x2="695.1431" y1="3272.5468" y2="3244.2654"/><line style="stroke:#555555;stroke-width:3.125;" x1="681.8493" x2="712.7217" y1="3272.5468" y2="3277.3901"/><line style="stroke:#555555;stroke-width:3.125;" x1="681.8493" x2="703.9324" y1="3272.5468" y2="3260.8277"/><ellipse cx="665.287" cy="3281.3361" fill="none" rx="12.5" ry="12.5" style="stroke:#555555;stroke-width:3.125;"/><path d="M457.3734,3391.6717 C536.9683,3349.4322 559.8062,3337.3126 654.2454,3287.1956" fill="none" style="stroke:#555555;stroke-width:3.125;"/><text fill="#333333" font-family="Arial" font-size="37.5" lengthAdjust="spacing" textLength="96.6614" x="506.25" y="3300.4333">actor</text></g><g class="link" data-entity-1="users" data-entity-2="mfa" data-uid="lnk20" id="link_users_mfa"><line style="stroke:#555555;stroke-width:3.125;" x1="444.9223" x2="450.1134" y1="3570.9668" y2="3546.5117"/><line style="stroke:#555555;stroke-width:3.125;" x1="454.0929" x2="459.2841" y1="3572.9135" y2="3548.4584"/><line style="stroke:#555555;stroke-width:3.125;" x1="459.7454" x2="435.2903" y1="3561.3348" y2="3556.1437"/><line style="stroke:#555555;stroke-width:3.125;" x1="686.2225" x2="714.5709" y1="3609.4096" y2="3596.2594"/><line style="stroke:#555555;stroke-width:3.125;" x1="686.2225" x2="706.7842" y1="3609.4096" y2="3632.942"/><line style="stroke:#555555;stroke-width:3.125;" x1="686.2225" x2="710.6776" y1="3609.4096" y2="3614.6007"/><ellipse cx="667.8811" cy="3605.5162" fill="none" rx="12.5" ry="12.5" style="stroke:#555555;stroke-width:3.125;"/><path d="M459.7454,3561.3348 C541.2354,3578.6329 558.9829,3582.4002 655.6536,3602.9207" fill="none" style="stroke:#555555;stroke-width:3.125;"/></g><g class="link" data-entity-1="users" data-entity-2="tokens" data-uid="lnk21" id="link_users_tokens"><line style="stroke:#555555;stroke-width:3.125;" x1="321.8756" x2="342.1624" y1="3669.5256" y2="3654.9159"/><line style="stroke:#555555;stroke-width:3.125;" x1="327.3543" x2="347.6411" y1="3677.1332" y2="3662.5234"/><line style="stroke:#555555;stroke-width:3.125;" x1="339.3239" x2="324.7142" y1="3672.3642" y2="3652.0773"/><line style="stroke:#555555;stroke-width:3.125;" x1="727.0741" x2="758.322" y1="4091.6451" y2="4091.2793"/><line style="stroke:#555555;stroke-width:3.125;" x1="727.0741" x2="736.1747" y1="4091.6451" y2="4121.5406"/><line style="stroke:#555555;stroke-width:3.125;" x1="727.0741" x2="747.2483" y1="4091.6451" y2="4106.41"/><ellipse cx="711.9435" cy="4080.5714" fill="none" rx="12.5" ry="12.5" style="stroke:#555555;stroke-width:3.125;"/><path d="M339.3239,3672.3642 C422.0875,3787.288 535.3481,3929.5335 671.875,4046.875 C695.6744,4067.33 675.6498,4054.0092 701.8564,4073.189" fill="none" style="stroke:#555555;stroke-width:3.125;"/></g><g class="link" data-entity-1="flows" data-entity-2="steps" data-uid="lnk22" id="link_flows_steps"><line style="stroke:#555555;stroke-width:3.125;" x1="1660.3073" x2="1665.9034" y1="1089.1956" y2="1064.83"/><line style="stroke:#555555;stroke-width:3.125;" x1="1669.4444" x2="1675.0405" y1="1091.2941" y2="1066.9285"/><line style="stroke:#555555;stroke-width:3.125;" x1="1675.2881" x2="1650.9225" y1="1079.8108" y2="1074.2147"/><line style="stroke:#555555;stroke-width:3.125;" x1="2258.9414" x2="2287.5041" y1="1213.8613" y2="1201.1832"/><line style="stroke:#555555;stroke-width:3.125;" x1="2258.9414" x2="2279.1098" y1="1213.8613" y2="1237.7317"/><line style="stroke:#555555;stroke-width:3.125;" x1="2258.9414" x2="2283.307" y1="1213.8613" y2="1219.4574"/><ellipse cx="2240.6672" cy="1209.6642" fill="none" rx="12.5" ry="12.5" style="stroke:#555555;stroke-width:3.125;"/><path d="M1675.2881,1079.8108 C1876.9462,1126.1266 2031.4814,1161.6195 2228.4844,1206.8661" fill="none" style="stroke:#555555;stroke-width:3.125;"/></g><g class="link" data-entity-1="methods" data-entity-2="steps" data-uid="lnk23" id="link_methods_steps"><line style="stroke:#555555;stroke-width:3.125;" x1="1657.86" x2="1652.2754" y1="1469.551" y2="1445.1827"/><line style="stroke:#555555;stroke-width:3.125;" x1="1666.9981" x2="1661.4135" y1="1467.4567" y2="1443.0885"/><line style="stroke:#555555;stroke-width:3.125;" x1="1667.2518" x2="1642.8836" y1="1454.5745" y2="1460.1591"/><line style="stroke:#555555;stroke-width:3.125;" x1="2258.8369" x2="2281.5602" y1="1362.0291" y2="1340.5765"/><line style="stroke:#555555;stroke-width:3.125;" x1="2258.8369" x2="2285.7939" y1="1362.0291" y2="1377.8368"/><line style="stroke:#555555;stroke-width:3.125;" x1="2258.8369" x2="2283.677" y1="1362.0291" y2="1359.2066"/><ellipse cx="2240.2068" cy="1364.1459" fill="none" rx="12.5" ry="12.5" style="stroke:#555555;stroke-width:3.125;"/><path d="M1667.2518,1454.5745 C1698.1068,1447.5034 1704.4379,1446.4907 1734.375,1440.625 C1912.9444,1405.6369 2055.9787,1385.0787 2227.7867,1365.5571" fill="none" style="stroke:#555555;stroke-width:3.125;"/><text fill="#333333" font-family="Arial" font-size="37.5" lengthAdjust="spacing" textLength="171.3135" x="1896.875" y="1303.5583">primary /</text><text fill="#333333" font-family="Arial" font-size="37.5" lengthAdjust="spacing" textLength="146.1365" x="1909.4635" y="1347.2107">fallback</text></g><g class="link" data-entity-1="methods" data-entity-2="steps" data-uid="lnk24" id="link_methods_steps"><line style="stroke:#555555;stroke-width:3.125;" x1="1667.8326" x2="1642.5919" y1="1625.9385" y2="1644.3632"/><line style="stroke:#555555;stroke-width:3.125;" x1="1667.8326" x2="1643.0776" y1="1625.9385" y2="1606.8663"/><line style="stroke:#555555;stroke-width:3.125;" x1="1667.8326" x2="1642.8347" y1="1625.9385" y2="1625.6147"/><ellipse cx="1686.5811" cy="1626.1814" fill="none" rx="12.5" ry="12.5" style="stroke:#555555;stroke-width:3.125;"/><line style="stroke:#555555;stroke-width:3.125;" x1="2259.8681" x2="2277.7402" y1="1560.3643" y2="1534.7294"/><line style="stroke:#555555;stroke-width:3.125;" x1="2259.8681" x2="2289.4818" y1="1560.3643" y2="1570.3438"/><line style="stroke:#555555;stroke-width:3.125;" x1="2259.8681" x2="2283.611" y1="1560.3643" y2="1552.5366"/><ellipse cx="2242.0609" cy="1566.2351" fill="none" rx="12.5" ry="12.5" style="stroke:#555555;stroke-width:3.125;"/><path d="M1699.08,1626.3433 C1883.7521,1628.7355 2040.2938,1616.1795 2228.125,1568.75 C2246.5692,1564.0926 2211.6853,1576.2495 2230.1894,1570.1489" fill="none" style="stroke:#555555;stroke-width:3.125;"/><text fill="#333333" font-family="Arial" font-size="37.5" lengthAdjust="spacing" textLength="464.1724" x="1750" y="1503.5583">auth_flow_step_methods</text><text fill="#333333" font-family="Arial" font-size="37.5" lengthAdjust="spacing" textLength="409.2773" x="1777.4475" y="1547.2107">(CHOICE alternatives)</text></g><g class="link" data-entity-1="methods" data-entity-2="tmethods" data-uid="lnk25" id="link_methods_tmethods"><line style="stroke:#555555;stroke-width:3.125;" x1="1652.1699" x2="1657.3877" y1="1704.5746" y2="1680.1252"/><line style="stroke:#555555;stroke-width:3.125;" x1="1661.3384" x2="1666.5563" y1="1706.5313" y2="1682.0819"/><line style="stroke:#555555;stroke-width:3.125;" x1="1667.0035" x2="1642.5541" y1="1694.9588" y2="1689.741"/><line style="stroke:#555555;stroke-width:3.125;" x1="2360.9801" x2="2389.3429" y1="1843.0636" y2="1829.9444"/><line style="stroke:#555555;stroke-width:3.125;" x1="2360.9801" x2="2381.5161" y1="1843.0636" y2="1866.6185"/><line style="stroke:#555555;stroke-width:3.125;" x1="2360.9801" x2="2385.4295" y1="1843.0636" y2="1848.2814"/><ellipse cx="2342.643" cy="1839.1502" fill="none" rx="12.5" ry="12.5" style="stroke:#555555;stroke-width:3.125;"/><path d="M1667.0035,1694.9588 C1906.5721,1746.0863 2113.7006,1790.2905 2330.4183,1836.5412" fill="none" style="stroke:#555555;stroke-width:3.125;"/></g><!--SRC=[dLPBSziu3BxxLw0zAPqudSrizz3fPCPrrCQJn77pw2ap6bg2R6ufqkKZZRR9Vr-Gb1p9SUhTdam188mF-03mrKgpHSL0i5ev2wP2ooGRlE8o5wv0G9qPMmiyuAuI0u6b1Qj0yyNIGi4rvfOhEHYWjDpMyDgYPDAQry0CD6VuEG1u0xo0z-0S_NpuC3izEY9XOX31kFcmv0kd4TZUuF79bJEeewDm-bqtpDbbLWhr8_eAfvTz3OT14qFFkWQVei4RaAn24jyndI-P9f5tcTbwvQMZc-kJT7ez6O-k9nTJUBYL05_JoycdjGJIwUN5sTavMT5TjKBDV0hN3cQpxEpYysIw3mS71sJ1PU6CrNLciLe9PZl_3SaxQALcpzkQhC2IEM79QAwKG2QVvO8gl5H5p4PptfsF61nALv7kvilH4IH_789G2ovR9pw0d29PA5sJxSVHrMHCSA-kHzFZqUKn7MUNwVdavfpiD7vtH1wJeTHAY8e2x4GSW31YrXrknw4yaCCi5nnRiZNddKYYNQnicyQ8o8SVbGPpZRQRvuzZNQ_itWvkQ8mTaJdD3Majtbj8c21-26x2zLp9aXSU1nDFs22PdOvJu2Mit5pm_5aVTF8KuNQ-Tq8E3hPI-MKe7QPadUAJnbXcdKStIwV7a-ddDQDJN-BBzEl5QNhSalUxOu90P2PNsliW5wXvdhpR_zDdGr259HgpNTyZRi5jHdIBwCFd_szY6XJaJwA0KcbWKicwKYuGToD72R5FwNsAHmWs5-XDM1XrlSud1YkdSsnJzAI9MSfoLNWvbzRBN9uJs1xHYMZKCaN6FDqihv0kLYlx3oJKztYFHIyDLSc8dCPG74t_bcnd6feBcLNVK6vZVH-x3yff7Vh0uWhUqhotJ8GFyuJ5VsK5iun4VnibvvIpIaE7vuPgkGqOrOGFDTBKghqbtg_29DWqxEBMM9B9Ca9ebaiu_ZRtm_McqRCbCqjVbTeYW-JgP3GyVFUNZwra5HTrbnUQSX5e45NDqDLuH_wANcK3hjgd25y6jbvECRq1MKpqBc1FDxTsThT_DmqWMMbUCLr7Y4BCMVxj9UEcrfdI1UfU-LlINwLVRlpA6vrH_uzFBYRZb2mgTaybzTl9jgnvt7mcPC_saVtF2-aN2_fNs6Ezw38rTRzUOJ8lMZRxODltoyF3SAX-nfV3fh1PEvlYpdZUL8NPjIbiSG_YKsUBbvuYph_t4APKNqKJeI-8ZJA8xvv65YWsQ7FT5PBJXXpmzbQsv5YRFggUQP- -RILlPH9f04nOr9BvHKvJTkF_rfZ_1G00]--></g></svg>