<svg xmlns="http://www.w3.org/2000/svg" xmlns:xlink="http://www.w3.org/1999/xlink" contentStyleType="text/css" data-diagram-type="CLASS" height="2293.75px" preserveAspectRatio="none" style="width:4484px;height:2293px;background:#FFFFFF;" version="1.1" viewBox="0 0 4484 2293" width="4484.375px" zoomAndPan="magnify"><defs/><g><!--class identities--><g class="entity" data-entity="identities" data-source-line="4" data-uid="ent0002" id="entity_identities"><rect fill="#F5F5F5" height="345.4102" rx="6.25" ry="6.25" style="stroke:#555555;stroke-width:1.5625;" width="530.8563" x="1054.6875" y="168.75"/><rect fill="#E3E3E3" height="97.29" rx="6.25" ry="6.25" style="stroke:#E3E3E3;stroke-width:1.5625;" width="530.8563" x="1054.6875" y="168.75"/><rect fill="#E3E3E3" height="6.25" style="stroke:#E3E3E3;stroke-width:1.5625;" width="530.8563" x="1054.6875" y="259.79"/><rect fill="none" height="345.4102" rx="6.25" ry="6.25" style="stroke:#555555;stroke-width:1.5625;" width="530.8563" x="1054.6875" y="168.75"/><text fill="#111111" font-family="Arial" font-size="40.625" lengthAdjust="spacing" textLength="188.4064" x="1225.9125" y="231.459">identities</text><line style="stroke:#555555;stroke-width:1.5625;" x1="1057.8125" x2="1582.4188" y1="266.04" y2="266.04"/><ellipse cx="1089.0625" cy="316.2476" fill="#000000" rx="9.375" ry="9.375" style="stroke:#000000;stroke-width:3.125;"/><text fill="#000000" font-family="Arial" font-size="40.625" lengthAdjust="spacing" textLength="278.92" x="1123.4375" y="325.6241">id : uuid &#171;PK&#187;</text><line style="stroke:#555555;stroke-width:3.125;" x1="1057.8125" x2="1582.4188" y1="357.0801" y2="357.0801"/><text fill="#000000" font-family="Arial" font-size="40.625" lengthAdjust="spacing" textLength="474.6063" x="1082.8125" y="416.6641">display_name : varchar</text><text fill="#000000" font-family="Arial" font-size="40.625" lengthAdjust="spacing" textLength="319.664" x="1082.8125" y="482.7042">status : varchar</text></g><!--class identity_emails--><g class="entity" data-entity="identity_emails" data-source-line="11" data-uid="ent0003" id="entity_identity_emails"><rect fill="#F5F5F5" height="411.4502" rx="6.25" ry="6.25" style="stroke:#555555;stroke-width:1.5625;" width="795.7916" x="18.75" y="1078.125"/><rect fill="#E3E3E3" height="97.29" rx="6.25" ry="6.25" style="stroke:#E3E3E3;stroke-width:1.5625;" width="795.7916" x="18.75" y="1078.125"/><rect fill="#E3E3E3" height="6.25" style="stroke:#E3E3E3;stroke-width:1.5625;" width="795.7916" x="18.75" y="1169.165"/><rect fill="none" height="411.4502" rx="6.25" ry="6.25" style="stroke:#555555;stroke-width:1.5625;" width="795.7916" x="18.75" y="1078.125"/><text fill="#111111" font-family="Arial" font-size="40.625" lengthAdjust="spacing" textLength="308.5159" x="262.3878" y="1140.834">identity_emails</text><line style="stroke:#555555;stroke-width:1.5625;" x1="21.875" x2="811.4166" y1="1175.415" y2="1175.415"/><ellipse cx="53.125" cy="1225.6226" fill="#000000" rx="9.375" ry="9.375" style="stroke:#000000;stroke-width:3.125;"/><text fill="#000000" font-family="Arial" font-size="40.625" lengthAdjust="spacing" textLength="278.92" x="87.5" y="1234.9991">id : uuid &#171;PK&#187;</text><line style="stroke:#555555;stroke-width:3.125;" x1="21.875" x2="811.4166" y1="1266.4551" y2="1266.4551"/><ellipse cx="53.125" cy="1316.6626" fill="#000000" rx="9.375" ry="9.375" style="stroke:#000000;stroke-width:3.125;"/><text fill="#000000" font-family="Arial" font-size="40.625" lengthAdjust="spacing" textLength="453.1036" x="87.5" y="1326.0391">identity_id : uuid &#171;FK&#187;</text><ellipse cx="53.125" cy="1382.7026" fill="#000000" rx="9.375" ry="9.375" style="stroke:#000000;stroke-width:3.125;"/><text fill="#000000" font-family="Arial" font-size="40.625" lengthAdjust="spacing" textLength="698.9166" x="87.5" y="1392.0792">email : varchar &#171;UQ lower(email)&#187;</text><text fill="#000000" font-family="Arial" font-size="40.625" lengthAdjust="spacing" textLength="355.3299" x="87.5" y="1458.1192">verified : boolean</text></g><!--class users--><g class="entity" data-entity="users" data-source-line="19" data-uid="ent0004" id="entity_users"><rect fill="#F5F5F5" height="788.9404" rx="6.25" ry="6.25" style="stroke:#555555;stroke-width:1.5625;" width="961.1877" x="1826.5625" y="890.625"/><rect fill="#E3E3E3" height="97.29" rx="6.25" ry="6.25" style="stroke:#E3E3E3;stroke-width:1.5625;" width="961.1877" x="1826.5625" y="890.625"/><rect fill="#E3E3E3" height="6.25" style="stroke:#E3E3E3;stroke-width:1.5625;" width="961.1877" x="1826.5625" y="981.665"/><rect fill="none" height="788.9404" rx="6.25" ry="6.25" style="stroke:#555555;stroke-width:1.5625;" width="961.1877" x="1826.5625" y="890.625"/><text fill="#111111" font-family="Arial" font-size="40.625" lengthAdjust="spacing" textLength="109.7748" x="2252.269" y="953.334">users</text><line style="stroke:#555555;stroke-width:1.5625;" x1="1829.6875" x2="2784.6252" y1="987.915" y2="987.915"/><ellipse cx="1860.9375" cy="1038.1226" fill="#000000" rx="9.375" ry="9.375" style="stroke:#000000;stroke-width:3.125;"/><text fill="#000000" font-family="Arial" font-size="40.625" lengthAdjust="spacing" textLength="278.92" x="1895.3125" y="1047.4991">id : uuid &#171;PK&#187;</text><line style="stroke:#555555;stroke-width:3.125;" x1="1829.6875" x2="2784.6252" y1="1078.9551" y2="1078.9551"/><ellipse cx="1860.9375" cy="1129.1626" fill="#000000" rx="9.375" ry="9.375" style="stroke:#000000;stroke-width:3.125;"/><text fill="#000000" font-family="Arial" font-size="40.625" lengthAdjust="spacing" textLength="431.3431" x="1895.3125" y="1138.5391">tenant_id : uuid &#171;FK&#187;</text><ellipse cx="1860.9375" cy="1195.2026" fill="#000000" rx="9.375" ry="9.375" style="stroke:#000000;stroke-width:3.125;"/><text fill="#000000" font-family="Arial" font-size="40.625" lengthAdjust="spacing" textLength="453.1036" x="1895.3125" y="1204.5792">identity_id : uuid &#171;FK&#187;</text><ellipse cx="1860.9375" cy="1261.2427" fill="#000000" rx="9.375" ry="9.375" style="stroke:#000000;stroke-width:3.125;"/><text fill="#000000" font-family="Arial" font-size="40.625" lengthAdjust="spacing" textLength="306.8695" x="1895.3125" y="1270.6192">email : varchar</text><text fill="#000000" font-family="Arial" font-size="40.625" lengthAdjust="spacing" textLength="864.3127" x="1895.3125" y="1336.6592">password_hash : varchar (BCrypt, cost 12)</text><text fill="#000000" font-family="Arial" font-size="40.625" lengthAdjust="spacing" textLength="742.9733" x="1895.3125" y="1402.6993">user_type : ROOT | TENANT_ADMIN |</text><text fill="#000000" font-family="Arial" font-size="40.625" lengthAdjust="spacing" textLength="538.7177" x="1921.1395" y="1449.9893">TENANT_MEMBER | GUEST</text><text fill="#000000" font-family="Arial" font-size="40.625" lengthAdjust="spacing" textLength="747.9324" x="1895.3125" y="1516.0294">failed_login_attempts : int (lock at 5)</text><text fill="#000000" font-family="Arial" font-size="40.625" lengthAdjust="spacing" textLength="749.4202" x="1895.3125" y="1582.0694">expires_at : timestamptz (guest TTL)</text><text fill="#000000" font-family="Arial" font-size="40.625" lengthAdjust="spacing" textLength="772.5693" x="1895.3125" y="1648.1094">deleted_at : timestamptz (soft delete)</text></g><!--class tenants--><g class="entity" data-entity="tenants" data-source-line="32" data-uid="ent0005" id="entity_tenants"><rect fill="#F5F5F5" height="609.5703" rx="6.25" ry="6.25" style="stroke:#555555;stroke-width:1.5625;" width="869.4443" x="2479.6875" y="37.5"/><rect fill="#E3E3E3" height="97.29" rx="6.25" ry="6.25" style="stroke:#E3E3E3;stroke-width:1.5625;" width="869.4443" x="2479.6875" y="37.5"/><rect fill="#E3E3E3" height="6.25" style="stroke:#E3E3E3;stroke-width:1.5625;" width="869.4443" x="2479.6875" y="128.54"/><rect fill="none" height="609.5703" rx="6.25" ry="6.25" style="stroke:#555555;stroke-width:1.5625;" width="869.4443" x="2479.6875" y="37.5"/><text fill="#111111" font-family="Arial" font-size="40.625" lengthAdjust="spacing" textLength="154.4067" x="2837.2063" y="100.209">tenants</text><line style="stroke:#555555;stroke-width:1.5625;" x1="2482.8125" x2="3346.0068" y1="134.79" y2="134.79"/><ellipse cx="2514.0625" cy="184.9976" fill="#000000" rx="9.375" ry="9.375" style="stroke:#000000;stroke-width:3.125;"/><text fill="#000000" font-family="Arial" font-size="40.625" lengthAdjust="spacing" textLength="278.92" x="2548.4375" y="194.3741">id : uuid &#171;PK&#187;</text><line style="stroke:#555555;stroke-width:3.125;" x1="2482.8125" x2="3346.0068" y1="225.8301" y2="225.8301"/><ellipse cx="2514.0625" cy="276.0376" fill="#000000" rx="9.375" ry="9.375" style="stroke:#000000;stroke-width:3.125;"/><text fill="#000000" font-family="Arial" font-size="40.625" lengthAdjust="spacing" textLength="434.3781" x="2548.4375" y="285.4141">name : varchar &#171;UQ&#187;</text><ellipse cx="2514.0625" cy="342.0776" fill="#000000" rx="9.375" ry="9.375" style="stroke:#000000;stroke-width:3.125;"/><text fill="#000000" font-family="Arial" font-size="40.625" lengthAdjust="spacing" textLength="403.1555" x="2548.4375" y="351.4542">slug : varchar &#171;UQ&#187;</text><text fill="#000000" font-family="Arial" font-size="40.625" lengthAdjust="spacing" textLength="280.4077" x="2548.4375" y="417.4942">status : enum</text><text fill="#000000" font-family="Arial" font-size="40.625" lengthAdjust="spacing" textLength="578.4897" x="2548.4375" y="483.5342">biometric_enabled : boolean</text><text fill="#000000" font-family="Arial" font-size="40.625" lengthAdjust="spacing" textLength="473.0194" x="2548.4375" y="549.5743">mfa_required : boolean</text><text fill="#000000" font-family="Arial" font-size="40.625" lengthAdjust="spacing" textLength="772.5693" x="2548.4375" y="615.6143">deleted_at : timestamptz (soft delete)</text></g><!--class domains--><g class="entity" data-entity="domains" data-source-line="43" data-uid="ent0006" id="entity_domains"><rect fill="#F5F5F5" height="345.4102" rx="6.25" ry="6.25" style="stroke:#555555;stroke-width:1.5625;" width="700.5371" x="3764.0625" y="1110.9375"/><rect fill="#E3E3E3" height="97.29" rx="6.25" ry="6.25" style="stroke:#E3E3E3;stroke-width:1.5625;" width="700.5371" x="3764.0625" y="1110.9375"/><rect fill="#E3E3E3" height="6.25" style="stroke:#E3E3E3;stroke-width:1.5625;" width="700.5371" x="3764.0625" y="1201.9775"/><rect fill="none" height="345.4102" rx="6.25" ry="6.25" style="stroke:#555555;stroke-width:1.5625;" width="700.5371" x="3764.0625" y="1110.9375"/><text fill="#111111" font-family="Arial" font-size="40.625" lengthAdjust="spacing" textLength="459.2133" x="3884.7244" y="1173.6465">tenant_email_domains</text><line style="stroke:#555555;stroke-width:1.5625;" x1="3767.1875" x2="4461.4746" y1="1208.2275" y2="1208.2275"/><ellipse cx="3798.4375" cy="1258.4351" fill="#000000" rx="9.375" ry="9.375" style="stroke:#000000;stroke-width:3.125;"/><text fill="#000000" font-family="Arial" font-size="40.625" lengthAdjust="spacing" textLength="431.3431" x="3832.8125" y="1267.8116">tenant_id : uuid &#171;FK&#187;</text><ellipse cx="3798.4375" cy="1324.4751" fill="#000000" rx="9.375" ry="9.375" style="stroke:#000000;stroke-width:3.125;"/><text fill="#000000" font-family="Arial" font-size="40.625" lengthAdjust="spacing" textLength="603.6621" x="3832.8125" y="1333.8516">email_domain : varchar &#171;UQ&#187;</text><line style="stroke:#555555;stroke-width:1.5625;" x1="3767.1875" x2="4461.4746" y1="1365.3076" y2="1365.3076"/><text fill="#000000" font-family="Arial" font-size="40.625" lengthAdjust="spacing" textLength="577.7756" x="3792.1875" y="1424.8917">verified : boolean (DNS TXT)</text></g><!--class roles--><g class="entity" data-entity="roles" data-source-line="49" data-uid="ent0007" id="entity_roles"><rect fill="#F5F5F5" height="411.4502" rx="6.25" ry="6.25" style="stroke:#555555;stroke-width:1.5625;" width="861.9858" x="2845.3125" y="1078.125"/><rect fill="#E3E3E3" height="97.29" rx="6.25" ry="6.25" style="stroke:#E3E3E3;stroke-width:1.5625;" width="861.9858" x="2845.3125" y="1078.125"/><rect fill="#E3E3E3" height="6.25" style="stroke:#E3E3E3;stroke-width:1.5625;" width="861.9858" x="2845.3125" y="1169.165"/><rect fill="none" height="411.4502" rx="6.25" ry="6.25" style="stroke:#555555;stroke-width:1.5625;" width="861.9858" x="2845.3125" y="1078.125"/><text fill="#111111" font-family="Arial" font-size="40.625" lengthAdjust="spacing" textLength="99.0036" x="3226.8036" y="1140.834">roles</text><line style="stroke:#555555;stroke-width:1.5625;" x1="2848.4375" x2="3704.1733" y1="1175.415" y2="1175.415"/><ellipse cx="2879.6875" cy="1225.6226" fill="#000000" rx="9.375" ry="9.375" style="stroke:#000000;stroke-width:3.125;"/><text fill="#000000" font-family="Arial" font-size="40.625" lengthAdjust="spacing" textLength="278.92" x="2914.0625" y="1234.9991">id : uuid &#171;PK&#187;</text><line style="stroke:#555555;stroke-width:3.125;" x1="2848.4375" x2="3704.1733" y1="1266.4551" y2="1266.4551"/><text fill="#000000" font-family="Arial" font-size="40.625" lengthAdjust="spacing" textLength="765.1108" x="2914.0625" y="1326.0391">tenant_id : uuid &#171;FK&#187; (NULL = global)</text><ellipse cx="2879.6875" cy="1382.7026" fill="#000000" rx="9.375" ry="9.375" style="stroke:#000000;stroke-width:3.125;"/><text fill="#000000" font-family="Arial" font-size="40.625" lengthAdjust="spacing" textLength="310.0433" x="2914.0625" y="1392.0792">name : varchar</text><text fill="#000000" font-family="Arial" font-size="40.625" lengthAdjust="spacing" textLength="499.7192" x="2914.0625" y="1458.1192">is_system_role : boolean</text></g><!--class permissions--><g class="entity" data-entity="permissions" data-source-line="57" data-uid="ent0008" id="entity_permissions"><rect fill="#F5F5F5" height="411.4502" rx="6.25" ry="6.25" style="stroke:#555555;stroke-width:1.5625;" width="788.1943" x="2882.8125" y="1862.5"/><rect fill="#E3E3E3" height="97.29" rx="6.25" ry="6.25" style="stroke:#E3E3E3;stroke-width:1.5625;" width="788.1943" x="2882.8125" y="1862.5"/><rect fill="#E3E3E3" height="6.25" style="stroke:#E3E3E3;stroke-width:1.5625;" width="788.1943" x="2882.8125" y="1953.54"/><rect fill="none" height="411.4502" rx="6.25" ry="6.25" style="stroke:#555555;stroke-width:1.5625;" width="788.1943" x="2882.8125" y="1862.5"/><text fill="#111111" font-family="Arial" font-size="40.625" lengthAdjust="spacing" textLength="243.7302" x="3155.0446" y="1925.209">permissions</text><line style="stroke:#555555;stroke-width:1.5625;" x1="2885.9375" x2="3667.8818" y1="1959.79" y2="1959.79"/><ellipse cx="2917.1875" cy="2009.9976" fill="#000000" rx="9.375" ry="9.375" style="stroke:#000000;stroke-width:3.125;"/><text fill="#000000" font-family="Arial" font-size="40.625" lengthAdjust="spacing" textLength="278.92" x="2951.5625" y="2019.3741">id : uuid &#171;PK&#187;</text><line style="stroke:#555555;stroke-width:3.125;" x1="2885.9375" x2="3667.8818" y1="2050.8301" y2="2050.8301"/><ellipse cx="2917.1875" cy="2101.0376" fill="#000000" rx="9.375" ry="9.375" style="stroke:#000000;stroke-width:3.125;"/><text fill="#000000" font-family="Arial" font-size="40.625" lengthAdjust="spacing" textLength="691.3193" x="2951.5625" y="2110.4141">name : varchar &#171;UQ&#187; (48 seeded)</text><text fill="#000000" font-family="Arial" font-size="40.625" lengthAdjust="spacing" textLength="372.3297" x="2951.5625" y="2176.4542">resource : varchar</text><text fill="#000000" font-family="Arial" font-size="40.625" lengthAdjust="spacing" textLength="319.8822" x="2951.5625" y="2242.4942">action : varchar</text></g><!--class user_roles--><g class="entity" data-entity="user_roles" data-source-line="65" data-uid="ent0009" id="entity_user_roles"><rect fill="#F5F5F5" height="345.4102" rx="6.25" ry="6.25" style="stroke:#555555;stroke-width:1.5625;" width="853.4561" x="1950" y="1895.3125"/><rect fill="#E3E3E3" height="97.29" rx="6.25" ry="6.25" style="stroke:#E3E3E3;stroke-width:1.5625;" width="853.4561" x="1950" y="1895.3125"/><rect fill="#E3E3E3" height="6.25" style="stroke:#E3E3E3;stroke-width:1.5625;" width="853.4561" x="1950" y="1986.3525"/><rect fill="none" height="345.4102" rx="6.25" ry="6.25" style="stroke:#555555;stroke-width:1.5625;" width="853.4561" x="1950" y="1895.3125"/><text fill="#111111" font-family="Arial" font-size="40.625" lengthAdjust="spacing" textLength="207.9254" x="2272.7654" y="1958.0215">user_roles</text><line style="stroke:#555555;stroke-width:1.5625;" x1="1953.125" x2="2800.3311" y1="1992.6025" y2="1992.6025"/><ellipse cx="1984.375" cy="2042.8101" fill="#000000" rx="9.375" ry="9.375" style="stroke:#000000;stroke-width:3.125;"/><text fill="#000000" font-family="Arial" font-size="40.625" lengthAdjust="spacing" textLength="463.6765" x="2018.75" y="2052.1866">user_id : uuid &#171;PK, FK&#187;</text><ellipse cx="1984.375" cy="2108.8501" fill="#000000" rx="9.375" ry="9.375" style="stroke:#000000;stroke-width:3.125;"/><text fill="#000000" font-family="Arial" font-size="40.625" lengthAdjust="spacing" textLength="452.9053" x="2018.75" y="2118.2266">role_id : uuid &#171;PK, FK&#187;</text><line style="stroke:#555555;stroke-width:3.125;" x1="1953.125" x2="2800.3311" y1="2149.6826" y2="2149.6826"/><text fill="#000000" font-family="Arial" font-size="40.625" lengthAdjust="spacing" textLength="797.2061" x="1978.125" y="2209.2667">expires_at : timestamptz (time-limited)</text></g><!--class consent--><g class="entity" data-entity="consent" data-source-line="72" data-uid="ent0010" id="entity_consent"><rect fill="#F5F5F5" height="477.4902" rx="6.25" ry="6.25" style="stroke:#555555;stroke-width:1.5625;" width="896.8979" x="871.875" y="1045.3125"/><rect fill="#E3E3E3" height="97.29" rx="6.25" ry="6.25" style="stroke:#E3E3E3;stroke-width:1.5625;" width="896.8979" x="871.875" y="1045.3125"/><rect fill="#E3E3E3" height="6.25" style="stroke:#E3E3E3;stroke-width:1.5625;" width="896.8979" x="871.875" y="1136.3525"/><rect fill="none" height="477.4902" rx="6.25" ry="6.25" style="stroke:#555555;stroke-width:1.5625;" width="896.8979" x="871.875" y="1045.3125"/><text fill="#111111" font-family="Arial" font-size="40.625" lengthAdjust="spacing" textLength="702.7054" x="968.9713" y="1108.0215">identity_tenant_biometric_consent</text><line style="stroke:#555555;stroke-width:1.5625;" x1="875" x2="1765.6479" y1="1142.6025" y2="1142.6025"/><ellipse cx="906.25" cy="1192.8101" fill="#000000" rx="9.375" ry="9.375" style="stroke:#000000;stroke-width:3.125;"/><text fill="#000000" font-family="Arial" font-size="40.625" lengthAdjust="spacing" textLength="278.92" x="940.625" y="1202.1866">id : uuid &#171;PK&#187;</text><line style="stroke:#555555;stroke-width:3.125;" x1="875" x2="1765.6479" y1="1233.6426" y2="1233.6426"/><ellipse cx="906.25" cy="1283.8501" fill="#000000" rx="9.375" ry="9.375" style="stroke:#000000;stroke-width:3.125;"/><text fill="#000000" font-family="Arial" font-size="40.625" lengthAdjust="spacing" textLength="453.1036" x="940.625" y="1293.2266">identity_id : uuid &#171;FK&#187;</text><ellipse cx="906.25" cy="1349.8901" fill="#000000" rx="9.375" ry="9.375" style="stroke:#000000;stroke-width:3.125;"/><text fill="#000000" font-family="Arial" font-size="40.625" lengthAdjust="spacing" textLength="431.3431" x="940.625" y="1359.2667">tenant_id : uuid &#171;FK&#187;</text><text fill="#000000" font-family="Arial" font-size="40.625" lengthAdjust="spacing" textLength="800.0229" x="940.625" y="1425.3067">method : varchar (NULL = all methods)</text><text fill="#000000" font-family="Arial" font-size="40.625" lengthAdjust="spacing" textLength="662.8143" x="940.625" y="1491.3467">granted : boolean (default deny)</text></g><g class="link" data-entity-1="identities" data-entity-2="identity_emails" data-uid="lnk11" id="link_identities_identity_emails"><line style="stroke:#555555;stroke-width:3.125;" x1="1138.0407" x2="1156.0309" y1="516.2049" y2="533.5644"/><line style="stroke:#555555;stroke-width:3.125;" x1="1131.5309" x2="1149.5211" y1="522.9513" y2="540.3108"/><line style="stroke:#555555;stroke-width:3.125;" x1="1138.3561" x2="1155.7156" y1="533.8798" y2="515.8896"/><line style="stroke:#555555;stroke-width:3.125;" x1="631.0423" x2="627.1754" y1="1059.6254" y2="1090.6352"/><line style="stroke:#555555;stroke-width:3.125;" x1="631.0423" x2="600.1901" y1="1059.6254" y2="1064.596"/><line style="stroke:#555555;stroke-width:3.125;" x1="631.0423" x2="613.6828" y1="1059.6254" y2="1077.6156"/><ellipse cx="644.0619" cy="1046.1327" fill="none" rx="12.5" ry="12.5" style="stroke:#555555;stroke-width:3.125;"/><path d="M1138.3561,533.8798 C985.7239,692.0574 814.8225,869.1681 652.7417,1037.1376" fill="none" style="stroke:#555555;stroke-width:3.125;"/></g><g class="link" data-entity-1="identities" data-entity-2="users" data-uid="lnk12" id="link_identities_users"><line style="stroke:#555555;stroke-width:3.125;" x1="1500.7607" x2="1517.9583" y1="533.5609" y2="515.4158"/><line style="stroke:#555555;stroke-width:3.125;" x1="1507.5651" x2="1524.7627" y1="540.01" y2="521.8649"/><line style="stroke:#555555;stroke-width:3.125;" x1="1518.432" x2="1500.287" y1="533.0872" y2="515.8896"/><line style="stroke:#555555;stroke-width:3.125;" x1="1877.4013" x2="1908.4446" y1="873.3128" y2="876.9017"/><line style="stroke:#555555;stroke-width:3.125;" x1="1877.4013" x2="1882.6482" y1="873.3128" y2="904.1192"/><line style="stroke:#555555;stroke-width:3.125;" x1="1877.4013" x2="1895.5464" y1="873.3128" y2="890.5104"/><ellipse cx="1863.7926" cy="860.4146" fill="none" rx="12.5" ry="12.5" style="stroke:#555555;stroke-width:3.125;"/><path d="M1518.432,533.0872 C1629.137,638.0117 1716.8043,721.1014 1854.72,851.8158" fill="none" style="stroke:#555555;stroke-width:3.125;"/><text fill="#333333" font-family="Arial" font-size="37.5" lengthAdjust="spacing" textLength="269.0918" x="1829.6875" y="761.3708">person behind</text><text fill="#333333" font-family="Arial" font-size="37.5" lengthAdjust="spacing" textLength="235.9497" x="1846.2585" y="805.0232">membership</text></g><g class="link" data-entity-1="tenants" data-entity-2="users" data-uid="lnk13" id="link_tenants_users"><line style="stroke:#555555;stroke-width:3.125;" x1="2700.7807" x2="2721.7633" y1="651.5877" y2="665.1791"/><line style="stroke:#555555;stroke-width:3.125;" x1="2695.6839" x2="2716.6665" y1="659.4562" y2="673.0476"/><line style="stroke:#555555;stroke-width:3.125;" x1="2704.4763" x2="2718.0677" y1="668.8747" y2="647.8921"/><line style="stroke:#555555;stroke-width:3.125;" x1="2574.8082" x2="2576.9537" y1="869.0582" y2="900.2345"/><line style="stroke:#555555;stroke-width:3.125;" x1="2574.8082" x2="2545.4797" y1="869.0582" y2="879.8473"/><line style="stroke:#555555;stroke-width:3.125;" x1="2574.8082" x2="2561.2167" y1="869.0582" y2="890.0409"/><ellipse cx="2585.0018" cy="853.3212" fill="none" rx="12.5" ry="12.5" style="stroke:#555555;stroke-width:3.125;"/><path d="M2704.4763,668.8747 C2654.487,746.0489 2644.209,761.9163 2591.7975,842.8299" fill="none" style="stroke:#555555;stroke-width:3.125;"/><text fill="#333333" font-family="Arial" font-size="37.5" lengthAdjust="spacing" textLength="256.1646" x="2679.6875" y="783.2458">has members</text></g><g class="link" data-entity-1="tenants" data-entity-2="domains" data-uid="lnk14" id="link_tenants_domains"><line style="stroke:#555555;stroke-width:3.125;" x1="3352.489" x2="3366.2135" y1="626.0345" y2="605.1386"/><line style="stroke:#555555;stroke-width:3.125;" x1="3360.325" x2="3374.0495" y1="631.1812" y2="610.2853"/><line style="stroke:#555555;stroke-width:3.125;" x1="3369.7992" x2="3348.9033" y1="622.4488" y2="608.7244"/><line style="stroke:#555555;stroke-width:3.125;" x1="3947.1417" x2="3977.9012" y1="1092.4655" y2="1097.9807"/><line style="stroke:#555555;stroke-width:3.125;" x1="3947.1417" x2="3950.4597" y1="1092.4655" y2="1123.5389"/><line style="stroke:#555555;stroke-width:3.125;" x1="3947.1417" x2="3964.1804" y1="1092.4655" y2="1110.7598"/><ellipse cx="3934.3626" cy="1078.7448" fill="none" rx="12.5" ry="12.5" style="stroke:#555555;stroke-width:3.125;"/><path d="M3369.7992,622.4488 C3498.5411,707.0066 3616.1281,790.9881 3735.9375,890.625 C3816.127,957.3129 3859.2031,998.047 3925.8433,1069.5977" fill="none" style="stroke:#555555;stroke-width:3.125;"/></g><g class="link" data-entity-1="tenants" data-entity-2="roles" data-uid="lnk15" id="link_tenants_roles"><line style="stroke:#555555;stroke-width:3.125;" x1="3024.1136" x2="3047.4261" y1="664.0629" y2="655.0337"/><line style="stroke:#555555;stroke-width:3.125;" x1="3027.4996" x2="3050.8121" y1="672.8051" y2="663.7759"/><line style="stroke:#555555;stroke-width:3.125;" x1="3040.2845" x2="3031.2553" y1="671.2046" y2="647.8921"/><line style="stroke:#555555;stroke-width:3.125;" x1="3188.5103" x2="3215.0239" y1="1053.9084" y2="1070.449"/><line style="stroke:#555555;stroke-width:3.125;" x1="3188.5103" x2="3180.0552" y1="1053.9084" y2="1083.9928"/><line style="stroke:#555555;stroke-width:3.125;" x1="3188.5103" x2="3197.5396" y1="1053.9084" y2="1077.2209"/><ellipse cx="3181.7384" cy="1036.424" fill="none" rx="12.5" ry="12.5" style="stroke:#555555;stroke-width:3.125;"/><path d="M3040.2845,671.2046 C3094.6872,811.6669 3128.5812,899.1775 3177.2238,1024.7678" fill="none" style="stroke:#555555;stroke-width:3.125;"/><text fill="#333333" font-family="Arial" font-size="37.5" lengthAdjust="spacing" textLength="285.1685" x="3119.0613" y="753.5583">NULL tenant_id</text><text fill="#333333" font-family="Arial" font-size="50" font-weight="bold" lengthAdjust="spacing" textLength="301.416" x="3110.9375" y="808.8135">global role</text></g><g class="link" data-entity-1="users" data-entity-2="user_roles" data-uid="lnk16" id="link_users_user_roles"><line style="stroke:#555555;stroke-width:3.125;" x1="2331.0376" x2="2355.9405" y1="1692.3938" y2="1690.1935"/><line style="stroke:#555555;stroke-width:3.125;" x1="2331.8627" x2="2356.7656" y1="1701.7324" y2="1699.5321"/><line style="stroke:#555555;stroke-width:3.125;" x1="2344.5892" x2="2342.3889" y1="1703.7451" y2="1678.8422"/><line style="stroke:#555555;stroke-width:3.125;" x1="2359.293" x2="2380.1705" y1="1870.1659" y2="1893.4187"/><line style="stroke:#555555;stroke-width:3.125;" x1="2359.293" x2="2342.816" y1="1870.1659" y2="1896.7191"/><line style="stroke:#555555;stroke-width:3.125;" x1="2359.293" x2="2361.4933" y1="1870.1659" y2="1895.0689"/><ellipse cx="2357.6428" cy="1851.4887" fill="none" rx="12.5" ry="12.5" style="stroke:#555555;stroke-width:3.125;"/><path d="M2344.5892,1703.7451 C2351.3102,1779.8144 2350.87,1774.8327 2356.5427,1839.0372" fill="none" style="stroke:#555555;stroke-width:3.125;"/></g><g class="link" data-entity-1="roles" data-entity-2="user_roles" data-uid="lnk17" id="link_roles_user_roles"><line style="stroke:#555555;stroke-width:3.125;" x1="3023.6424" x2="3039.9932" y1="1489.6463" y2="1508.558"/><line style="stroke:#555555;stroke-width:3.125;" x1="3016.5505" x2="3032.9013" y1="1495.7779" y2="1514.6896"/><line style="stroke:#555555;stroke-width:3.125;" x1="3022.362" x2="3041.2737" y1="1507.2776" y2="1490.9268"/><line style="stroke:#555555;stroke-width:3.125;" x1="2592.8809" x2="2586.2322" y1="1878.5998" y2="1909.1343"/><line style="stroke:#555555;stroke-width:3.125;" x1="2592.8809" x2="2561.7061" y1="1878.5998" y2="1880.7667"/><line style="stroke:#555555;stroke-width:3.125;" x1="2592.8809" x2="2573.9691" y1="1878.5998" y2="1894.9505"/><ellipse cx="2607.0646" cy="1866.3367" fill="none" rx="12.5" ry="12.5" style="stroke:#555555;stroke-width:3.125;"/><path d="M3022.362,1507.2776 C2877.052,1632.9101 2754.1911,1739.1336 2616.5205,1858.1613" fill="none" style="stroke:#555555;stroke-width:3.125;"/></g><g class="link" data-entity-1="roles" data-entity-2="permissions" data-uid="lnk18" id="link_roles_permissions"><line style="stroke:#555555;stroke-width:3.125;" x1="3276.5625" x2="3257.8125" y1="1515.9268" y2="1490.9268"/><line style="stroke:#555555;stroke-width:3.125;" x1="3276.5625" x2="3295.3125" y1="1515.9268" y2="1490.9268"/><line style="stroke:#555555;stroke-width:3.125;" x1="3276.5625" x2="3276.5625" y1="1515.9268" y2="1490.9268"/><ellipse cx="3276.5625" cy="1534.6768" fill="none" rx="12.5" ry="12.5" style="stroke:#555555;stroke-width:3.125;"/><line style="stroke:#555555;stroke-width:3.125;" x1="3276.5625" x2="3295.3125" y1="1837.0355" y2="1862.0355"/><line style="stroke:#555555;stroke-width:3.125;" x1="3276.5625" x2="3257.8125" y1="1837.0355" y2="1862.0355"/><line style="stroke:#555555;stroke-width:3.125;" x1="3276.5625" x2="3276.5625" y1="1837.0355" y2="1862.0355"/><ellipse cx="3276.5625" cy="1818.2855" fill="none" rx="12.5" ry="12.5" style="stroke:#555555;stroke-width:3.125;"/><path d="M3276.5625,1547.1768 C3276.5625,1661.5519 3276.5625,1691.3839 3276.5625,1805.7855" fill="none" style="stroke:#555555;stroke-width:3.125;"/><text fill="#333333" font-family="Arial" font-size="37.5" lengthAdjust="spacing" textLength="315.5823" x="3292.1875" y="1784.8083">role_permissions</text></g><g class="link" data-entity-1="identities" data-entity-2="consent" data-uid="lnk19" id="link_identities_consent"><line style="stroke:#555555;stroke-width:3.125;" x1="1307.8125" x2="1332.8125" y1="528.3896" y2="528.3896"/><line style="stroke:#555555;stroke-width:3.125;" x1="1307.8125" x2="1332.8125" y1="537.7646" y2="537.7646"/><line style="stroke:#555555;stroke-width:3.125;" x1="1320.3125" x2="1320.3125" y1="540.8896" y2="515.8896"/><line style="stroke:#555555;stroke-width:3.125;" x1="1320.3125" x2="1339.0625" y1="1019.9247" y2="1044.9247"/><line style="stroke:#555555;stroke-width:3.125;" x1="1320.3125" x2="1301.5625" y1="1019.9247" y2="1044.9247"/><line style="stroke:#555555;stroke-width:3.125;" x1="1320.3125" x2="1320.3125" y1="1019.9247" y2="1044.9247"/><ellipse cx="1320.3125" cy="1001.1747" fill="none" rx="12.5" ry="12.5" style="stroke:#555555;stroke-width:3.125;"/><path d="M1320.3125,540.8896 C1320.3125,689.0493 1320.3125,823.8665 1320.3125,988.6747" fill="none" style="stroke:#555555;stroke-width:3.125;"/></g><g class="link" data-entity-1="tenants" data-entity-2="consent" data-uid="lnk20" id="link_tenants_consent"><line style="stroke:#555555;stroke-width:3.125;" x1="2461.7407" x2="2474.1871" y1="620.7542" y2="642.4358"/><line style="stroke:#555555;stroke-width:3.125;" x1="2453.6102" x2="2466.0565" y1="625.4216" y2="647.1031"/><line style="stroke:#555555;stroke-width:3.125;" x1="2457.1231" x2="2478.8047" y1="637.8182" y2="625.3718"/><line style="stroke:#555555;stroke-width:3.125;" x1="1584.9616" x2="1577.446" y1="1028.6639" y2="1058.9967"/><line style="stroke:#555555;stroke-width:3.125;" x1="1584.9616" x2="1553.7378" y1="1028.6639" y2="1029.9421"/><line style="stroke:#555555;stroke-width:3.125;" x1="1584.9616" x2="1565.5919" y1="1028.6639" y2="1044.4694"/><ellipse cx="1599.4889" cy="1016.8098" fill="none" rx="12.5" ry="12.5" style="stroke:#555555;stroke-width:3.125;"/><path d="M2457.1231,637.8182 C2324.0015,714.2369 2196.1553,778.7504 2051.5625,834.375 C1944.0027,875.7531 1902.1163,840.3065 1798.4375,890.625 C1716.4706,930.406 1679.8059,951.272 1609.1738,1008.9071" fill="none" style="stroke:#555555;stroke-width:3.125;"/></g><!--SRC=[fLNVRzCm47xFNt7RKpkjI22GK3KcRQmWnDR1baayJ8gSvDfQ-4UmdK5OzxzpiTCrwL8gnajZtttsVNVt-RfN63QN30IhTEd0IdHCiMYFgqoKEGAQnBfAu0jUIX4vNO3Ja6hdj8IS6ymSrogAK3dkAjZdkLznjFl0BAotS1y17901nb2Mz3aw-lBv-9YCen7zvDmMH25HJ28XxfZ95ioGmphcIjioFJm9LYKe6HUTY2lRZh07QtmRyY503i1ViWvEhfkl8FHFD0Fl6dhS7He-urXVa6ejaAasozAY2TpyQYSZXuefry_ddzYIhM3M_jGcJnRCBbfv34xVcwfmXv1fw-3bgo5XQtQ9gugw_bUNbp4i8PvCJwPnSd9syMaAori5Ayl5vE9qSaM8ZpUJwvWEpoWovedGSwuIvXpAmjLTuyh1GEZiEp07R-em-AiWsLW2aTjnYTHX0l-6mRoaDSJnUGtBKQ2Z6v_2h9wvnZrirpdKBLIwMU-iTLTklhrDBQqevtsUHpsYAYNjKwxfoHYU9HGo5HqH0CWPImp-A2dZhkEvwGLP9xccZmgvDkicrx-fftssBxUdEeR1sVGQucznXueXNuZjLpkgl8KH3AOtv-Vm3kP2fqmCU_f19cuJMrcIKrA7wdzW1Hh9hQKv54YrziyJ00nUlmMBc6DUqoArwj9aNMBC3xx-kUHVqhf8wsr3nnkwd0xXiKirSflNizx-WkhDI739NSsyRr8spLYhDgCgaSyJRTR_EJEtAv12BdJU7aED19WGZTFM1PyRkg0hmnndh1Jrmr2Lpwprpx9SZaRwVdFozo32_1tN0h7KknGNNEMtIg9CoRBWHRIQ6ni7Q7f2Wzg4DAzlqnpQFGQVu6D5RjLAxXuGXVjRmO9Ced1wc_r1UtjRvkEWcfQf9_sclPjKL-O_]--></g></svg>