<svg xmlns="http://www.w3.org/2000/svg" xmlns:xlink="http://www.w3.org/1999/xlink" contentStyleType="text/css" data-diagram-type="CLASS" height="2393.75px" preserveAspectRatio="none" style="width:1987px;height:2393px;background:#FFFFFF;" version="1.1" viewBox="0 0 1987 2393" width="1987.5px" zoomAndPan="magnify"><defs/><g><!--class users--><g class="entity" data-entity="users" data-source-line="4" data-uid="ent0002" id="entity_users"><rect fill="#F5F5F5" height="235.6201" rx="6.25" ry="6.25" style="stroke:#555555;stroke-width:1.5625;" width="534.6603" x="18.75" y="1350"/><rect fill="#E3E3E3" height="144.5801" rx="6.25" ry="6.25" style="stroke:#E3E3E3;stroke-width:1.5625;" width="534.6603" x="18.75" y="1350"/><rect fill="#E3E3E3" height="6.25" style="stroke:#E3E3E3;stroke-width:1.5625;" width="534.6603" x="18.75" y="1488.3301"/><rect fill="none" height="235.6201" rx="6.25" ry="6.25" style="stroke:#555555;stroke-width:1.5625;" width="534.6603" x="18.75" y="1350"/><text fill="#111111" font-family="Arial" font-size="40.625" lengthAdjust="spacing" textLength="109.7748" x="231.1928" y="1412.709">users</text><text fill="#111111" font-family="Arial" font-size="40.625" lengthAdjust="spacing" textLength="497.1603" x="37.5" y="1459.9991">(identity_core database)</text><line style="stroke:#555555;stroke-width:1.5625;" x1="21.875" x2="550.2853" y1="1494.5801" y2="1494.5801"/><ellipse cx="53.125" cy="1544.7876" fill="#000000" rx="9.375" ry="9.375" style="stroke:#000000;stroke-width:3.125;"/><text fill="#000000" font-family="Arial" font-size="40.625" lengthAdjust="spacing" textLength="278.92" x="87.5" y="1554.1641">id : uuid &#171;PK&#187;</text></g><!--class face--><g class="entity" data-entity="face" data-source-line="8" data-uid="ent0003" id="entity_face"><rect fill="#F5F5F5" height="741.6504" rx="6.25" ry="6.25" style="stroke:#555555;stroke-width:1.5625;" width="957.637" x="1009.375" y="37.5"/><rect fill="#E3E3E3" height="97.29" rx="6.25" ry="6.25" style="stroke:#E3E3E3;stroke-width:1.5625;" width="957.637" x="1009.375" y="37.5"/><rect fill="#E3E3E3" height="6.25" style="stroke:#E3E3E3;stroke-width:1.5625;" width="957.637" x="1009.375" y="128.54"/><rect fill="none" height="741.6504" rx="6.25" ry="6.25" style="stroke:#555555;stroke-width:1.5625;" width="957.637" x="1009.375" y="37.5"/><text fill="#111111" font-family="Arial" font-size="40.625" lengthAdjust="spacing" textLength="357.7499" x="1309.3185" y="100.209">face_embeddings</text><line style="stroke:#555555;stroke-width:1.5625;" x1="1012.5" x2="1963.887" y1="134.79" y2="134.79"/><ellipse cx="1043.75" cy="184.9976" fill="#000000" rx="9.375" ry="9.375" style="stroke:#000000;stroke-width:3.125;"/><text fill="#000000" font-family="Arial" font-size="40.625" lengthAdjust="spacing" textLength="278.92" x="1078.125" y="194.3741">id : uuid &#171;PK&#187;</text><line style="stroke:#555555;stroke-width:3.125;" x1="1012.5" x2="1963.887" y1="225.8301" y2="225.8301"/><ellipse cx="1043.75" cy="276.0376" fill="#000000" rx="9.375" ry="9.375" style="stroke:#000000;stroke-width:3.125;"/><text fill="#000000" font-family="Arial" font-size="40.625" lengthAdjust="spacing" textLength="738.3514" x="1078.125" y="285.4141">user_id : varchar (logical ref., no FK)</text><text fill="#000000" font-family="Arial" font-size="40.625" lengthAdjust="spacing" textLength="385.4614" x="1078.125" y="351.4542">tenant_id : varchar</text><ellipse cx="1043.75" cy="408.1177" fill="#000000" rx="9.375" ry="9.375" style="stroke:#000000;stroke-width:3.125;"/><text fill="#000000" font-family="Arial" font-size="40.625" lengthAdjust="spacing" textLength="791.7709" x="1078.125" y="417.4942">embedding : vector(512) (Facenet512)</text><text fill="#000000" font-family="Arial" font-size="40.625" lengthAdjust="spacing" textLength="789.3112" x="1078.125" y="483.5342">embedding_ciphertext : bytea (Fernet)</text><ellipse cx="1043.75" cy="540.1978" fill="#000000" rx="9.375" ry="9.375" style="stroke:#000000;stroke-width:3.125;"/><text fill="#000000" font-family="Arial" font-size="40.625" lengthAdjust="spacing" textLength="442.3523" x="1078.125" y="549.5743">key_version : smallint</text><ellipse cx="1043.75" cy="606.2378" fill="#000000" rx="9.375" ry="9.375" style="stroke:#000000;stroke-width:3.125;"/><text fill="#000000" font-family="Arial" font-size="40.625" lengthAdjust="spacing" textLength="562.7792" x="1078.125" y="615.6143">quality_score : float (0-100)</text><text fill="#000000" font-family="Arial" font-size="40.625" lengthAdjust="spacing" textLength="860.762" x="1078.125" y="681.6544">enrollment_type : INDIVIDUAL | CENTROID</text><text fill="#000000" font-family="Arial" font-size="40.625" lengthAdjust="spacing" textLength="772.5693" x="1078.125" y="747.6944">deleted_at : timestamptz (soft delete)</text></g><!--class voice--><g class="entity" data-entity="voice" data-source-line="21" data-uid="ent0004" id="entity_voice"><rect fill="#F5F5F5" height="609.5703" rx="6.25" ry="6.25" style="stroke:#555555;stroke-width:1.5625;" width="957.637" x="1009.375" y="1162.5"/><rect fill="#E3E3E3" height="97.29" rx="6.25" ry="6.25" style="stroke:#E3E3E3;stroke-width:1.5625;" width="957.637" x="1009.375" y="1162.5"/><rect fill="#E3E3E3" height="6.25" style="stroke:#E3E3E3;stroke-width:1.5625;" width="957.637" x="1009.375" y="1253.54"/><rect fill="none" height="609.5703" rx="6.25" ry="6.25" style="stroke:#555555;stroke-width:1.5625;" width="957.637" x="1009.375" y="1162.5"/><text fill="#111111" font-family="Arial" font-size="40.625" lengthAdjust="spacing" textLength="370.108" x="1303.1395" y="1225.209">voice_enrollments</text><line style="stroke:#555555;stroke-width:1.5625;" x1="1012.5" x2="1963.887" y1="1259.79" y2="1259.79"/><ellipse cx="1043.75" cy="1309.9976" fill="#000000" rx="9.375" ry="9.375" style="stroke:#000000;stroke-width:3.125;"/><text fill="#000000" font-family="Arial" font-size="40.625" lengthAdjust="spacing" textLength="278.92" x="1078.125" y="1319.3741">id : uuid &#171;PK&#187;</text><line style="stroke:#555555;stroke-width:3.125;" x1="1012.5" x2="1963.887" y1="1350.8301" y2="1350.8301"/><ellipse cx="1043.75" cy="1401.0376" fill="#000000" rx="9.375" ry="9.375" style="stroke:#000000;stroke-width:3.125;"/><text fill="#000000" font-family="Arial" font-size="40.625" lengthAdjust="spacing" textLength="738.3514" x="1078.125" y="1410.4141">user_id : varchar (logical ref., no FK)</text><text fill="#000000" font-family="Arial" font-size="40.625" lengthAdjust="spacing" textLength="385.4614" x="1078.125" y="1476.4542">tenant_id : varchar</text><text fill="#000000" font-family="Arial" font-size="40.625" lengthAdjust="spacing" textLength="815.0589" x="1078.125" y="1542.4942">embedding : vector(256) (Resemblyzer)</text><text fill="#000000" font-family="Arial" font-size="40.625" lengthAdjust="spacing" textLength="789.3112" x="1078.125" y="1608.5342">embedding_ciphertext : bytea (Fernet)</text><ellipse cx="1043.75" cy="1665.1978" fill="#000000" rx="9.375" ry="9.375" style="stroke:#000000;stroke-width:3.125;"/><text fill="#000000" font-family="Arial" font-size="40.625" lengthAdjust="spacing" textLength="400.1205" x="1078.125" y="1674.5743">quality_score : float</text><text fill="#000000" font-family="Arial" font-size="40.625" lengthAdjust="spacing" textLength="860.762" x="1078.125" y="1740.6143">enrollment_type : INDIVIDUAL | CENTROID</text></g><!--class finger--><g class="entity" data-entity="finger" data-source-line="32" data-uid="ent0005" id="entity_finger"><rect fill="#F5F5F5" height="543.5303" rx="6.25" ry="6.25" style="stroke:#555555;stroke-width:1.5625;" width="835.2264" x="1070.3125" y="1829.6875"/><rect fill="#E3E3E3" height="97.29" rx="6.25" ry="6.25" style="stroke:#E3E3E3;stroke-width:1.5625;" width="835.2264" x="1070.3125" y="1829.6875"/><rect fill="#E3E3E3" height="6.25" style="stroke:#E3E3E3;stroke-width:1.5625;" width="835.2264" x="1070.3125" y="1920.7275"/><rect fill="none" height="543.5303" rx="6.25" ry="6.25" style="stroke:#555555;stroke-width:1.5625;" width="835.2264" x="1070.3125" y="1829.6875"/><text fill="#111111" font-family="Arial" font-size="40.625" lengthAdjust="spacing" textLength="476.8677" x="1249.4919" y="1892.3965">fingerprint_enrollments</text><line style="stroke:#555555;stroke-width:1.5625;" x1="1073.4375" x2="1902.4139" y1="1926.9775" y2="1926.9775"/><ellipse cx="1104.6875" cy="1977.1851" fill="#000000" rx="9.375" ry="9.375" style="stroke:#000000;stroke-width:3.125;"/><text fill="#000000" font-family="Arial" font-size="40.625" lengthAdjust="spacing" textLength="278.92" x="1139.0625" y="1986.5616">id : uuid &#171;PK&#187;</text><line style="stroke:#555555;stroke-width:3.125;" x1="1073.4375" x2="1902.4139" y1="2018.0176" y2="2018.0176"/><ellipse cx="1104.6875" cy="2068.2251" fill="#000000" rx="9.375" ry="9.375" style="stroke:#000000;stroke-width:3.125;"/><text fill="#000000" font-family="Arial" font-size="40.625" lengthAdjust="spacing" textLength="738.3514" x="1139.0625" y="2077.6016">user_id : varchar (logical ref., no FK)</text><text fill="#000000" font-family="Arial" font-size="40.625" lengthAdjust="spacing" textLength="385.4614" x="1139.0625" y="2143.6417">tenant_id : varchar</text><text fill="#000000" font-family="Arial" font-size="40.625" lengthAdjust="spacing" textLength="507.3563" x="1139.0625" y="2209.6817">embedding : vector(256)</text><text fill="#000000" font-family="Arial" font-size="40.625" lengthAdjust="spacing" textLength="494.8792" x="1139.0625" y="2275.7217">finger_position : varchar</text><ellipse cx="1104.6875" cy="2332.3853" fill="#000000" rx="9.375" ry="9.375" style="stroke:#000000;stroke-width:3.125;"/><text fill="#000000" font-family="Arial" font-size="40.625" lengthAdjust="spacing" textLength="400.1205" x="1139.0625" y="2341.7618">quality_score : float</text></g><g class="entity" data-entity="GMN9" data-source-line="47" data-uid="ent0010" id="entity_GMN9"><path d="M1065.625,842.1875 L1065.625,1097.9492 A6.25,6.25 0 0 0 1071.875,1104.1992 L1903.7659,1104.1992 A6.25,6.25 0 0 0 1910.0159,1097.9492 L1910.0159,867.1875 L1878.7659,835.9375 L1500,835.9375 L1487.5,778.4208 L1475,835.9375 L1071.875,835.9375 A6.25,6.25 0 0 0 1065.625,842.1875" fill="#FBFBFB" style="stroke:#999999;stroke-width:1.5625;"/><path d="M1878.7659,835.9375 L1878.7659,864.0625 A3.125,3.125 0 0 0 1881.8909,867.1875 L1910.0159,867.1875 L1878.7659,835.9375" fill="#FBFBFB" style="stroke:#999999;stroke-width:1.5625;"/><text fill="#000000" font-family="Arial" font-size="37.5" lengthAdjust="spacing" textLength="760.0159" x="1093.75" y="895.7458">ANN index on every embedding column:</text><text fill="#000000" font-family="Arial" font-size="37.5" lengthAdjust="spacing" textLength="677.1057" x="1093.75" y="939.3982">HNSW (m=16, ef_construction=64),</text><text fill="#000000" font-family="Arial" font-size="37.5" lengthAdjust="spacing" textLength="725.4456" x="1093.75" y="983.0505">vector_cosine_ops &#8212; production state.</text><text fill="#000000" font-family="Arial" font-size="37.5" lengthAdjust="spacing" textLength="610.6934" x="1093.75" y="1026.7029">Alembic baseline creates IVFFlat</text><text fill="#000000" font-family="Arial" font-size="37.5" lengthAdjust="spacing" textLength="528.0396" x="1093.75" y="1070.3552">(lists=100) on fresh installs.</text></g><g class="link" data-entity-1="users" data-entity-2="face" data-uid="lnk6" id="link_users_face"><line style="stroke:#555555;stroke-width:3.125;" x1="440.26" x2="415.1356" y1="1325.3934" y2="1348.8541"/><ellipse cx="440.26" cy="1325.3934" fill="none" rx="12.5" ry="12.5" style="stroke:#555555;stroke-width:3.125;"/><line style="stroke:#555555;stroke-width:3.125;" x1="432.8029" x2="415.7406" y1="1349.4591" y2="1331.1868"/><line style="stroke:#555555;stroke-width:3.125;" x1="1023.7785" x2="1030.3316" y1="795.1512" y2="764.5961"/><line style="stroke:#555555;stroke-width:3.125;" x1="1023.7785" x2="1054.9463" y1="795.1512" y2="792.8868"/><line style="stroke:#555555;stroke-width:3.125;" x1="1023.7785" x2="1042.639" y1="795.1512" y2="778.7414"/><ellipse cx="1009.6331" cy="807.4586" fill="none" rx="12.5" ry="12.5" style="stroke:#555555;stroke-width:3.125;"/><path d="M449.3962,1316.8623 C592.071,1183.6351 797.8992,993.5067 1009.375,807.8125 C1020.3115,798.2093 988.9795,825.4286 1000.2029,815.6635" fill="none" style="stroke:#555555;stroke-width:3.125;stroke-dasharray:7.0,7.0;"/><text fill="#333333" font-family="Arial" font-size="37.5" lengthAdjust="spacing" textLength="308.7708" x="627.9663" y="795.7458">user_id as string</text><text fill="#333333" font-family="Arial" font-size="37.5" lengthAdjust="spacing" textLength="314.7034" x="625" y="839.3982">(cross-database)</text></g><g class="link" data-entity-1="users" data-entity-2="voice" data-uid="lnk7" id="link_users_voice"><line style="stroke:#555555;stroke-width:3.125;" x1="588.7161" x2="554.3411" y1="1467.1875" y2="1467.1875"/><ellipse cx="588.7161" cy="1467.1875" fill="none" rx="12.5" ry="12.5" style="stroke:#555555;stroke-width:3.125;"/><line style="stroke:#555555;stroke-width:3.125;" x1="566.8411" x2="566.8411" y1="1479.6875" y2="1454.6875"/><line style="stroke:#555555;stroke-width:3.125;" x1="984.34" x2="1009.34" y1="1467.1875" y2="1448.4375"/><line style="stroke:#555555;stroke-width:3.125;" x1="984.34" x2="1009.34" y1="1467.1875" y2="1485.9375"/><line style="stroke:#555555;stroke-width:3.125;" x1="984.34" x2="1009.34" y1="1467.1875" y2="1467.1875"/><ellipse cx="965.59" cy="1467.1875" fill="none" rx="12.5" ry="12.5" style="stroke:#555555;stroke-width:3.125;"/><path d="M601.2161,1467.1875 C734.9913,1467.1875 798.2178,1467.1875 953.09,1467.1875" fill="none" style="stroke:#555555;stroke-width:3.125;stroke-dasharray:7.0,7.0;"/><text fill="#333333" font-family="Arial" font-size="37.5" lengthAdjust="spacing" textLength="308.7708" x="628.125" y="1445.7458">user_id as string</text></g><g class="link" data-entity-1="users" data-entity-2="finger" data-uid="lnk8" id="link_users_finger"><line style="stroke:#555555;stroke-width:3.125;" x1="541.4541" x2="511.0903" y1="1601.1365" y2="1585.0219"/><ellipse cx="541.4541" cy="1601.1365" fill="none" rx="12.5" ry="12.5" style="stroke:#555555;stroke-width:3.125;"/><line style="stroke:#555555;stroke-width:3.125;" x1="516.2718" x2="527.9915" y1="1601.9231" y2="1579.8403"/><line style="stroke:#555555;stroke-width:3.125;" x1="1047.9511" x2="1078.8237" y1="1869.9441" y2="1865.1017"/><line style="stroke:#555555;stroke-width:3.125;" x1="1047.9511" x2="1061.2441" y1="1869.9441" y2="1898.2259"/><line style="stroke:#555555;stroke-width:3.125;" x1="1047.9511" x2="1070.0339" y1="1869.9441" y2="1881.6638"/><ellipse cx="1031.3891" cy="1861.1543" fill="none" rx="12.5" ry="12.5" style="stroke:#555555;stroke-width:3.125;"/><path d="M552.4954,1606.9964 C709.1296,1690.1251 832.5598,1755.6318 1020.3477,1855.2944" fill="none" style="stroke:#555555;stroke-width:3.125;stroke-dasharray:7.0,7.0;"/><text fill="#333333" font-family="Arial" font-size="37.5" lengthAdjust="spacing" textLength="308.7708" x="628.125" y="1617.6208">user_id as string</text></g><!--SRC=[nPJDRjD04CVlVeffJpPAhAIYEKHDfOeG4HK5LA1SaAoDTvoiME-QtN5LjqNY8NX2deJPjHHI28SU42VBE__v-ktC7ZLER6e1MdIs9V0raZ0YELAcrAr4G5TuwZJcggrreh4Y80jERRO4KZaiILcJ96X8KGV7hKVdFvbKoVwaAAr3a8B4MdZCZa5uY1guJm2UWP8mXRRbpzdPsylpy-JhhrYLAB70UerIAhFnqJUS_SqLO3YCbf2WYEORuSgjS91gkr6bqE2moWTWB2mkCzOI6c7eaJP6s6KDvzoZTUdf-2I3TC7v3LBuOU5ELfIgsQ8Zl2NsM7U4WhNeM9h5W9-nAswuROR50byBhPMXQFhI2Xr8-OXg2fMsWY0T3SUZKKnYdDMwPYe5TKrGB5VpvVLo_k7YDJp0YvUhzrTlbdDMIjH8A0iHYY1LeoTHDtG7gRTyRxqvsqTyOrLWlClGGuwd_vpo0SOdfnDcV8MURRgxG_Sqo0T9Fe7W_knnFdIDuqlw0qzl-rzysD8NK3JMA-e7Qdzs3rFWtlgzUx1vRk_xHPhkYkIsF76t6zxTqbdlXxkTVUpNpyO1nz_2zumEwH9Z2M5jYMmDjegLSE4NgnKe8_4Mk2FaNUds29HMjxMPikpLwjr7IElPU380hFXvCHosZQ_GRF8y6x2aXyKchmmMjl7muzjtQ9oLlOuB4OHvoAavXIeXzCdxY50wP9E7vVLYeUFif5fvyhEmYw6mog7VSfqSGckVyxn82FqaFm40]--></g></svg>