<?xml version='1.0' encoding='UTF-8'?>
<svg width="111mm" height="111mm" version="1.1" viewBox="0 0 111 111" xmlns="http://www.w3.org/2000/svg"><path d="M6,6H9V9H6zM9,6H12V9H9zM12,6H15V9H12zM15,6H18V9H15zM18,6H21V9H18zM21,6H24V9H21zM24,6H27V9H24zM30,6H33V9H30zM42,6H45V9H42zM45,6H48V9H45zM48,6H51V9H48zM51,6H54V9H51zM72,6H75V9H72zM75,6H78V9H75zM78,6H81V9H78zM84,6H87V9H84zM87,6H90V9H87zM90,6H93V9H90zM93,6H96V9H93zM96,6H99V9H96zM99,6H102V9H99zM102,6H105V9H102zM6,9H9V12H6zM24,9H27V12H24zM33,9H36V12H33zM39,9H42V12H39zM51,9H54V12H51zM54,9H57V12H54zM57,9H60V12H57zM60,9H63V12H60zM72,9H75V12H72zM75,9H78V12H75zM84,9H87V12H84zM102,9H105V12H102zM6,12H9V15H6zM12,12H15V15H12zM15,12H18V15H15zM18,12H21V15H18zM24,12H27V15H24zM36,12H39V15H36zM39,12H42V15H39zM42,12H45V15H42zM45,12H48V15H45zM48,12H51V15H48zM54,12H57V15H54zM60,12H63V15H60zM72,12H75V15H72zM75,12H78V15H75zM78,12H81V15H78zM84,12H87V15H84zM90,12H93V15H90zM93,12H96V15H93zM96,12H99V15H96zM102,12H105V15H102zM6,15H9V18H6zM12,15H15V18H12zM15,15H18V18H15zM18,15H21V18H18zM24,15H27V18H24zM30,15H33V18H30zM39,15H42V18H39zM42,15H45V18H42zM51,15H54V18H51zM60,15H63V18H60zM63,15H66V18H63zM66,15H69V18H66zM72,15H75V18H72zM78,15H81V18H78zM84,15H87V18H84zM90,15H93V18H90zM93,15H96V18H93zM96,15H99V18H96zM102,15H105V18H102zM6,18H9V21H6zM12,18H15V21H12zM15,18H18V21H15zM18,18H21V21H18zM24,18H27V21H24zM33,18H36V21H33zM36,18H39V21H36zM42,18H45V21H42zM48,18H51V21H48zM51,18H54V21H51zM60,18H63V21H60zM66,18H69V21H66zM72,18H75V21H72zM78,18H81V21H78zM84,18H87V21H84zM90,18H93V21H90zM93,18H96V21H93zM96,18H99V21H96zM102,18H105V21H102zM6,21H9V24H6zM24,21H27V24H24zM63,21H66V24H63zM75,21H78V24H75zM78,21H81V24H78zM84,21H87V24H84zM102,21H105V24H102zM6,24H9V27H6zM9,24H12V27H9zM12,24H15V27H12zM15,24H18V27H15zM18,24H21V27H18zM21,24H24V27H21zM24,24H27V27H24zM30,24H33V27H30zM36,24H39V27H36zM42,24H45V27H42zM48,24H51V27H48zM54,24H57V27H54zM60,24H63V27H60zM66,24H69V27H66zM72,24H75V27H72zM78,24H81V27H78zM84,24H87V27H84zM87,24H90V27H87zM90,24H93V27H90zM93,24H96V27H93zM96,24H99V27H96zM99,24H102V27H99zM102,24H105V27H102zM36,27H39V30H36zM39,27H42V30H39zM42,27H45V30H42zM48,27H51V30H48zM54,27H57V30H54zM66,27H69V30H66zM69,27H72V30H69zM72,27H75V30H72zM75,27H78V30H75zM12,30H15V33H12zM18,30H21V33H18zM21,30H24V33H21zM24,30H27V33H24zM30,30H33V33H30zM33,30H36V33H33zM36,30H39V33H36zM39,30H42V33H39zM54,30H57V33H54zM60,30H63V33H60zM66,30H69V33H66zM69,30H72V33H69zM78,30H81V33H78zM81,30H84V33H81zM93,30H96V33H93zM102,30H105V33H102zM9,33H12V36H9zM12,33H15V36H12zM15,33H18V36H15zM18,33H21V36H18zM27,33H30V36H27zM33,33H36V36H33zM36,33H39V36H36zM54,33H57V36H54zM60,33H63V36H60zM63,33H66V36H63zM78,33H81V36H78zM84,33H87V36H84zM99,33H102V36H99zM102,33H105V36H102zM6,36H9V39H6zM9,36H12V39H9zM12,36H15V39H12zM18,36H21V39H18zM24,36H27V39H24zM27,36H30V39H27zM36,36H39V39H36zM39,36H42V39H39zM42,36H45V39H42zM45,36H48V39H45zM51,36H54V39H51zM57,36H60V39H57zM69,36H72V39H69zM78,36H81V39H78zM90,36H93V39H90zM93,36H96V39H93zM96,36H99V39H96zM99,36H102V39H99zM102,36H105V39H102zM15,39H18V42H15zM21,39H24V42H21zM39,39H42V42H39zM45,39H48V42H45zM51,39H54V42H51zM54,39H57V42H54zM78,39H81V42H78zM84,39H87V42H84zM99,39H102V42H99zM9,42H12V45H9zM12,42H15V45H12zM18,42H21V45H18zM21,42H24V45H21zM24,42H27V45H24zM27,42H30V45H27zM33,42H36V45H33zM45,42H48V45H45zM48,42H51V45H48zM51,42H54V45H51zM57,42H60V45H57zM63,42H66V45H63zM75,42H78V45H75zM78,42H81V45H78zM81,42H84V45H81zM84,42H87V45H84zM90,42H93V45H90zM99,42H102V45H99zM6,45H9V48H6zM9,45H12V48H9zM12,45H15V48H12zM21,45H24V48H21zM27,45H30V48H27zM30,45H33V48H30zM33,45H36V48H33zM36,45H39V48H36zM39,45H42V48H39zM42,45H45V48H42zM45,45H48V48H45zM48,45H51V48H48zM51,45H54V48H51zM60,45H63V48H60zM66,45H69V48H66zM78,45H81V48H78zM84,45H87V48H84zM90,45H93V48H90zM96,45H99V48H96zM99,45H102V48H99zM102,45H105V48H102zM9,48H12V51H9zM12,48H15V51H12zM15,48H18V51H15zM24,48H27V51H24zM27,48H30V51H27zM36,48H39V51H36zM39,48H42V51H39zM45,48H48V51H45zM51,48H54V51H51zM66,48H69V51H66zM69,48H72V51H69zM78,48H81V51H78zM84,48H87V51H84zM99,48H102V51H99zM102,48H105V51H102zM9,51H12V54H9zM12,51H15V54H12zM30,51H33V54H30zM33,51H36V54H33zM36,51H39V54H36zM39,51H42V54H39zM48,51H51V54H48zM54,51H57V54H54zM57,51H60V54H57zM69,51H72V54H69zM72,51H75V54H72zM78,51H81V54H78zM90,51H93V54H90zM96,51H99V54H96zM99,51H102V54H99zM102,51H105V54H102zM6,54H9V57H6zM9,54H12V57H9zM12,54H15V57H12zM15,54H18V57H15zM18,54H21V57H18zM24,54H27V57H24zM36,54H39V57H36zM42,54H45V57H42zM45,54H48V57H45zM57,54H60V57H57zM60,54H63V57H60zM66,54H69V57H66zM69,54H72V57H69zM72,54H75V57H72zM75,54H78V57H75zM81,54H84V57H81zM84,54H87V57H84zM96,54H99V57H96zM6,57H9V60H6zM9,57H12V60H9zM12,57H15V60H12zM15,57H18V60H15zM21,57H24V60H21zM27,57H30V60H27zM33,57H36V60H33zM36,57H39V60H36zM39,57H42V60H39zM54,57H57V60H54zM60,57H63V60H60zM66,57H69V60H66zM84,57H87V60H84zM93,57H96V60H93zM96,57H99V60H96zM99,57H102V60H99zM6,60H9V63H6zM9,60H12V63H9zM12,60H15V63H12zM15,60H18V63H15zM18,60H21V63H18zM24,60H27V63H24zM27,60H30V63H27zM30,60H33V63H30zM33,60H36V63H33zM39,60H42V63H39zM51,60H54V63H51zM54,60H57V63H54zM63,60H66V63H63zM66,60H69V63H66zM72,60H75V63H72zM84,60H87V63H84zM87,60H90V63H87zM96,60H99V63H96zM102,60H105V63H102zM6,63H9V66H6zM27,63H30V66H27zM36,63H39V66H36zM39,63H42V66H39zM45,63H48V66H45zM48,63H51V66H48zM51,63H54V66H51zM54,63H57V66H54zM63,63H66V66H63zM66,63H69V66H66zM69,63H72V66H69zM72,63H75V66H72zM87,63H90V66H87zM6,66H9V69H6zM9,66H12V69H9zM24,66H27V69H24zM27,66H30V69H27zM30,66H33V69H30zM33,66H36V69H33zM36,66H39V69H36zM39,66H42V69H39zM42,66H45V69H42zM48,66H51V69H48zM51,66H54V69H51zM54,66H57V69H54zM57,66H60V69H57zM60,66H63V69H60zM66,66H69V69H66zM69,66H72V69H69zM78,66H81V69H78zM84,66H87V69H84zM93,66H96V69H93zM99,66H102V69H99zM9,69H12V72H9zM15,69H18V72H15zM21,69H24V72H21zM27,69H30V72H27zM36,69H39V72H36zM45,69H48V72H45zM48,69H51V72H48zM60,69H63V72H60zM72,69H75V72H72zM75,69H78V72H75zM78,69H81V72H78zM93,69H96V72H93zM96,69H99V72H96zM102,69H105V72H102zM6,72H9V75H6zM12,72H15V75H12zM15,72H18V75H15zM24,72H27V75H24zM27,72H30V75H27zM33,72H36V75H33zM36,72H39V75H36zM39,72H42V75H39zM48,72H51V75H48zM51,72H54V75H51zM54,72H57V75H54zM60,72H63V75H60zM63,72H66V75H63zM69,72H72V75H69zM75,72H78V75H75zM78,72H81V75H78zM84,72H87V75H84zM93,72H96V75H93zM96,72H99V75H96zM99,72H102V75H99zM102,72H105V75H102zM9,75H12V78H9zM18,75H21V78H18zM21,75H24V78H21zM27,75H30V78H27zM30,75H33V78H30zM36,75H39V78H36zM39,75H42V78H39zM48,75H51V78H48zM57,75H60V78H57zM69,75H72V78H69zM72,75H75V78H72zM78,75H81V78H78zM81,75H84V78H81zM90,75H93V78H90zM99,75H102V78H99zM102,75H105V78H102zM6,78H9V81H6zM15,78H18V81H15zM21,78H24V81H21zM24,78H27V81H24zM36,78H39V81H36zM42,78H45V81H42zM48,78H51V81H48zM51,78H54V81H51zM54,78H57V81H54zM60,78H63V81H60zM66,78H69V81H66zM69,78H72V81H69zM75,78H78V81H75zM78,78H81V81H78zM81,78H84V81H81zM84,78H87V81H84zM87,78H90V81H87zM90,78H93V81H90zM99,78H102V81H99zM102,78H105V81H102zM30,81H33V84H30zM33,81H36V84H33zM39,81H42V84H39zM42,81H45V84H42zM48,81H51V84H48zM60,81H63V84H60zM63,81H66V84H63zM69,81H72V84H69zM75,81H78V84H75zM78,81H81V84H78zM90,81H93V84H90zM93,81H96V84H93zM99,81H102V84H99zM102,81H105V84H102zM6,84H9V87H6zM9,84H12V87H9zM12,84H15V87H12zM15,84H18V87H15zM18,84H21V87H18zM21,84H24V87H21zM24,84H27V87H24zM33,84H36V87H33zM45,84H48V87H45zM48,84H51V87H48zM51,84H54V87H51zM54,84H57V87H54zM60,84H63V87H60zM63,84H66V87H63zM66,84H69V87H66zM72,84H75V87H72zM75,84H78V87H75zM78,84H81V87H78zM84,84H87V87H84zM90,84H93V87H90zM93,84H96V87H93zM99,84H102V87H99zM102,84H105V87H102zM6,87H9V90H6zM24,87H27V90H24zM30,87H33V90H30zM36,87H39V90H36zM42,87H45V90H42zM48,87H51V90H48zM51,87H54V90H51zM60,87H63V90H60zM69,87H72V90H69zM72,87H75V90H72zM75,87H78V90H75zM78,87H81V90H78zM90,87H93V90H90zM102,87H105V90H102zM6,90H9V93H6zM12,90H15V93H12zM15,90H18V93H15zM18,90H21V93H18zM24,90H27V93H24zM30,90H33V93H30zM36,90H39V93H36zM45,90H48V93H45zM66,90H69V93H66zM72,90H75V93H72zM78,90H81V93H78zM81,90H84V93H81zM84,90H87V93H84zM87,90H90V93H87zM90,90H93V93H90zM93,90H96V93H93zM99,90H102V93H99zM6,93H9V96H6zM12,93H15V96H12zM15,93H18V96H15zM18,93H21V96H18zM24,93H27V96H24zM33,93H36V96H33zM42,93H45V96H42zM45,93H48V96H45zM48,93H51V96H48zM51,93H54V96H51zM60,93H63V96H60zM72,93H75V96H72zM78,93H81V96H78zM90,93H93V96H90zM93,93H96V96H93zM6,96H9V99H6zM12,96H15V99H12zM15,96H18V99H15zM18,96H21V99H18zM24,96H27V99H24zM30,96H33V99H30zM33,96H36V99H33zM36,96H39V99H36zM42,96H45V99H42zM48,96H51V99H48zM51,96H54V99H51zM60,96H63V99H60zM63,96H66V99H63zM69,96H72V99H69zM78,96H81V99H78zM81,96H84V99H81zM87,96H90V99H87zM90,96H93V99H90zM93,96H96V99H93zM96,96H99V99H96zM102,96H105V99H102zM6,99H9V102H6zM24,99H27V102H24zM33,99H36V102H33zM36,99H39V102H36zM48,99H51V102H48zM51,99H54V102H51zM54,99H57V102H54zM60,99H63V102H60zM75,99H78V102H75zM78,99H81V102H78zM81,99H84V102H81zM87,99H90V102H87zM93,99H96V102H93zM99,99H102V102H99zM6,102H9V105H6zM9,102H12V105H9zM12,102H15V105H12zM15,102H18V105H15zM18,102H21V105H18zM21,102H24V105H21zM24,102H27V105H24zM42,102H45V105H42zM45,102H48V105H45zM48,102H51V105H48zM51,102H54V105H51zM54,102H57V105H54zM63,102H66V105H63zM66,102H69V105H66zM78,102H81V105H78zM81,102H84V105H81zM87,102H90V105H87zM90,102H93V105H90zM93,102H96V105H93zM96,102H99V105H96zM99,102H102V105H99zM102,102H105V105H102z" id="qr-path" fill="#000000" fill-opacity="1" fill-rule="nonzero" stroke="none"/></svg>